<?xml version="1.0" encoding="UTF-8" standalone="no"?>
<!DOCTYPE svg PUBLIC "-//W3C//DTD SVG 1.1//EN"
 "http://www.w3.org/Graphics/SVG/1.1/DTD/svg11.dtd">
<!-- Generated by graphviz version 2.43.0 (0)
 -->
<!-- Title: %3 Pages: 1 -->
<svg width="489pt" height="361pt"
 viewBox="0.00 0.00 489.00 360.74" xmlns="http://www.w3.org/2000/svg" xmlns:xlink="http://www.w3.org/1999/xlink">
<g id="graph0" class="graph" transform="scale(1 1) rotate(0) translate(4 356.74)">
<title>%3</title>
<polygon fill="white" stroke="transparent" points="-4,4 -4,-356.74 485,-356.74 485,4 -4,4"/>
<g id="clust1" class="cluster">
<title>cluster0</title>
<polygon fill="none" stroke="black" points="258,-8 258,-166 473,-166 473,-8 258,-8"/>
</g>
<g id="clust2" class="cluster">
<title>cluster1</title>
<polygon fill="none" stroke="black" points="8,-97 8,-344.74 250,-344.74 250,-97 8,-97"/>
</g>
<!-- Input0_0 -->
<g id="node1" class="node">
<title>Input0_0</title>
<polygon fill="royalblue" stroke="royalblue" points="464.5,-158 383.5,-158 383.5,-105 464.5,-105 464.5,-158"/>
<text text-anchor="middle" x="424" y="-142.8" font-family="Times,serif" font-size="14.00">Input</text>
<text text-anchor="middle" x="424" y="-127.8" font-family="Times,serif" font-size="14.00">u64[2, 2]</text>
<text text-anchor="middle" x="424" y="-112.8" font-family="Times,serif" font-size="14.00">MultIp0</text>
</g>
<!-- Multiply2_0 -->
<g id="node3" class="node">
<title>Multiply2_0</title>
<polygon fill="crimson" stroke="crimson" points="414.5,-69 315.5,-69 315.5,-16 414.5,-16 414.5,-69"/>
<text text-anchor="middle" x="365" y="-53.8" font-family="Times,serif" font-size="14.00">Multiply</text>
<text text-anchor="middle" x="365" y="-38.8" font-family="Times,serif" font-size="14.00">u64[2, 2, 2]</text>
<text text-anchor="middle" x="365" y="-23.8" font-family="Times,serif" font-size="14.00">Product</text>
</g>
<!-- Input0_0&#45;&gt;Multiply2_0 -->
<g id="edge1" class="edge">
<title>Input0_0&#45;&gt;Multiply2_0</title>
<path fill="none" stroke="black" d="M406.62,-104.87C400.85,-96.36 394.33,-86.75 388.19,-77.7"/>
<polygon fill="black" stroke="black" points="390.97,-75.56 382.46,-69.25 385.18,-79.49 390.97,-75.56"/>
</g>
<!-- Input1_0 -->
<g id="node2" class="node">
<title>Input1_0</title>
<polygon fill="royalblue" stroke="royalblue" points="365.5,-158 266.5,-158 266.5,-105 365.5,-105 365.5,-158"/>
<text text-anchor="middle" x="316" y="-142.8" font-family="Times,serif" font-size="14.00">Input</text>
<text text-anchor="middle" x="316" y="-127.8" font-family="Times,serif" font-size="14.00">u64[2, 2, 2]</text>
<text text-anchor="middle" x="316" y="-112.8" font-family="Times,serif" font-size="14.00">MultIp1</text>
</g>
<!-- Input1_0&#45;&gt;Multiply2_0 -->
<g id="edge2" class="edge">
<title>Input1_0&#45;&gt;Multiply2_0</title>
<path fill="none" stroke="black" d="M330.44,-104.87C335.18,-96.45 340.53,-86.95 345.58,-77.98"/>
<polygon fill="black" stroke="black" points="348.64,-79.68 350.5,-69.25 342.54,-76.25 348.64,-79.68"/>
</g>
<!-- Input0_1 -->
<g id="node4" class="node">
<title>Input0_1</title>
<polygon fill="royalblue" stroke="royalblue" points="84,-247.37 16,-247.37 16,-194.37 84,-194.37 84,-247.37"/>
<text text-anchor="middle" x="50" y="-232.17" font-family="Times,serif" font-size="14.00">Input</text>
<text text-anchor="middle" x="50" y="-217.17" font-family="Times,serif" font-size="14.00">u64[2]</text>
<text text-anchor="middle" x="50" y="-202.17" font-family="Times,serif" font-size="14.00">Input a</text>
</g>
<!-- Add4_1 -->
<g id="node8" class="node">
<title>Add4_1</title>
<polygon fill="crimson" stroke="crimson" points="168.5,-158 69.5,-158 69.5,-105 168.5,-105 168.5,-158"/>
<text text-anchor="middle" x="119" y="-142.8" font-family="Times,serif" font-size="14.00">Add</text>
<text text-anchor="middle" x="119" y="-127.8" font-family="Times,serif" font-size="14.00">u64[2, 2, 2]</text>
<text text-anchor="middle" x="119" y="-112.8" font-family="Times,serif" font-size="14.00">Output</text>
</g>
<!-- Input0_1&#45;&gt;Add4_1 -->
<g id="edge7" class="edge">
<title>Input0_1&#45;&gt;Add4_1</title>
<path fill="none" stroke="black" d="M70.33,-194.13C77.28,-185.33 85.15,-175.36 92.52,-166.03"/>
<polygon fill="black" stroke="black" points="95.37,-168.07 98.82,-158.06 89.87,-163.74 95.37,-168.07"/>
</g>
<!-- Input1_1 -->
<g id="node5" class="node">
<title>Input1_1</title>
<polygon fill="royalblue" stroke="royalblue" points="227.5,-336.74 146.5,-336.74 146.5,-283.74 227.5,-283.74 227.5,-336.74"/>
<text text-anchor="middle" x="187" y="-321.54" font-family="Times,serif" font-size="14.00">Input</text>
<text text-anchor="middle" x="187" y="-306.54" font-family="Times,serif" font-size="14.00">u64[2, 2]</text>
<text text-anchor="middle" x="187" y="-291.54" font-family="Times,serif" font-size="14.00">Input b</text>
</g>
<!-- Call3_1 -->
<g id="node7" class="node">
<title>Call3_1</title>
<ellipse fill="none" stroke="black" cx="172" cy="-220.87" rx="70.01" ry="26.74"/>
<text text-anchor="middle" x="172" y="-224.67" font-family="Times,serif" font-size="14.00">Call</text>
<text text-anchor="middle" x="172" y="-209.67" font-family="Times,serif" font-size="14.00">u64[2, 2, 2]</text>
</g>
<!-- Input1_1&#45;&gt;Call3_1 -->
<g id="edge3" class="edge">
<title>Input1_1&#45;&gt;Call3_1</title>
<path fill="none" stroke="black" d="M182.58,-283.5C181.19,-275.39 179.63,-266.29 178.14,-257.62"/>
<polygon fill="black" stroke="black" points="181.58,-256.99 176.44,-247.73 174.68,-258.18 181.58,-256.99"/>
</g>
<!-- Input2_1 -->
<g id="node6" class="node">
<title>Input2_1</title>
<polygon fill="royalblue" stroke="royalblue" points="128.5,-336.74 29.5,-336.74 29.5,-283.74 128.5,-283.74 128.5,-336.74"/>
<text text-anchor="middle" x="79" y="-321.54" font-family="Times,serif" font-size="14.00">Input</text>
<text text-anchor="middle" x="79" y="-306.54" font-family="Times,serif" font-size="14.00">u64[2, 2, 2]</text>
<text text-anchor="middle" x="79" y="-291.54" font-family="Times,serif" font-size="14.00">Input c</text>
</g>
<!-- Input2_1&#45;&gt;Call3_1 -->
<g id="edge4" class="edge">
<title>Input2_1&#45;&gt;Call3_1</title>
<path fill="none" stroke="black" d="M106.4,-283.5C116.58,-273.94 128.23,-262.99 138.86,-253"/>
<polygon fill="black" stroke="black" points="141.5,-255.33 146.39,-245.93 136.7,-250.23 141.5,-255.33"/>
</g>
<!-- Call3_1&#45;&gt;Input0_0 -->
<g id="edge5" class="edge">
<title>Call3_1&#45;&gt;Input0_0</title>
<path fill="none" stroke="black" d="M235.19,-208.88C276.24,-200.36 330.25,-186.5 375,-166 376.83,-165.16 378.66,-164.26 380.49,-163.3"/>
<polygon fill="black" stroke="black" points="382.56,-166.15 389.52,-158.16 379.1,-160.07 382.56,-166.15"/>
</g>
<!-- Call3_1&#45;&gt;Input1_0 -->
<g id="edge6" class="edge">
<title>Call3_1&#45;&gt;Input1_0</title>
<path fill="none" stroke="black" d="M208.34,-197.82C225.53,-187.39 246.35,-174.76 265.08,-163.4"/>
<polygon fill="black" stroke="black" points="267.06,-166.28 273.8,-158.11 263.43,-160.3 267.06,-166.28"/>
</g>
<!-- Call3_1&#45;&gt;Add4_1 -->
<g id="edge8" class="edge">
<title>Call3_1&#45;&gt;Add4_1</title>
<path fill="none" stroke="black" d="M156.67,-194.6C151.39,-185.89 145.38,-175.99 139.74,-166.69"/>
<polygon fill="black" stroke="black" points="142.66,-164.75 134.48,-158.02 136.67,-168.38 142.66,-164.75"/>
</g>
</g>
</svg>
