<?xml version="1.0" encoding="UTF-8" standalone="no"?>
<!DOCTYPE svg PUBLIC "-//W3C//DTD SVG 1.1//EN"
 "http://www.w3.org/Graphics/SVG/1.1/DTD/svg11.dtd">
<!-- Generated by graphviz version 2.43.0 (0)
 -->
<!-- Title: %3 Pages: 1 -->
<svg width="169pt" height="152pt"
 viewBox="0.00 0.00 169.00 152.00" xmlns="http://www.w3.org/2000/svg" xmlns:xlink="http://www.w3.org/1999/xlink">
<g id="graph0" class="graph" transform="scale(1 1) rotate(0) translate(4 148)">
<title>%3</title>
<polygon fill="white" stroke="transparent" points="-4,4 -4,-148 165,-148 165,4 -4,4"/>
<g id="clust1" class="cluster">
<title>cluster0</title>
<polygon fill="none" stroke="black" points="8,-8 8,-136 153,-136 153,-8 8,-8"/>
</g>
<!-- Input0_0 -->
<g id="node1" class="node">
<title>Input0_0</title>
<polygon fill="royalblue" stroke="royalblue" points="144.5,-128 89.5,-128 89.5,-90 144.5,-90 144.5,-128"/>
<text text-anchor="middle" x="117" y="-112.8" font-family="Times,serif" font-size="14.00">Input</text>
<text text-anchor="middle" x="117" y="-97.8" font-family="Times,serif" font-size="14.00">i32</text>
</g>
<!-- Add2_0 -->
<g id="node3" class="node">
<title>Add2_0</title>
<polygon fill="crimson" stroke="crimson" points="107,-54 53,-54 53,-16 107,-16 107,-54"/>
<text text-anchor="middle" x="80" y="-38.8" font-family="Times,serif" font-size="14.00">Add</text>
<text text-anchor="middle" x="80" y="-23.8" font-family="Times,serif" font-size="14.00">i32</text>
</g>
<!-- Input0_0&#45;&gt;Add2_0 -->
<g id="edge1" class="edge">
<title>Input0_0&#45;&gt;Add2_0</title>
<path fill="none" stroke="black" d="M107.66,-89.83C103.58,-81.88 98.69,-72.37 94.17,-63.57"/>
<polygon fill="black" stroke="black" points="97.15,-61.71 89.46,-54.41 90.92,-64.91 97.15,-61.71"/>
</g>
<!-- Input1_0 -->
<g id="node2" class="node">
<title>Input1_0</title>
<polygon fill="royalblue" stroke="royalblue" points="71.5,-128 16.5,-128 16.5,-90 71.5,-90 71.5,-128"/>
<text text-anchor="middle" x="44" y="-112.8" font-family="Times,serif" font-size="14.00">Input</text>
<text text-anchor="middle" x="44" y="-97.8" font-family="Times,serif" font-size="14.00">i32</text>
</g>
<!-- Input1_0&#45;&gt;Add2_0 -->
<g id="edge2" class="edge">
<title>Input1_0&#45;&gt;Add2_0</title>
<path fill="none" stroke="black" d="M53.08,-89.83C57.06,-81.88 61.82,-72.37 66.21,-63.57"/>
<polygon fill="black" stroke="black" points="69.45,-64.92 70.79,-54.41 63.19,-61.79 69.45,-64.92"/>
</g>
</g>
</svg>
