<?xml version="1.0" encoding="UTF-8" standalone="no"?>
<!DOCTYPE svg PUBLIC "-//W3C//DTD SVG 1.1//EN"
 "http://www.w3.org/Graphics/SVG/1.1/DTD/svg11.dtd">
<!-- Generated by graphviz version 2.43.0 (0)
 -->
<!-- Title: %3 Pages: 1 -->
<svg width="213pt" height="152pt"
 viewBox="0.00 0.00 213.00 152.00" xmlns="http://www.w3.org/2000/svg" xmlns:xlink="http://www.w3.org/1999/xlink">
<g id="graph0" class="graph" transform="scale(1 1) rotate(0) translate(4 148)">
<title>%3</title>
<polygon fill="white" stroke="transparent" points="-4,4 -4,-148 209,-148 209,4 -4,4"/>
<g id="clust1" class="cluster">
<title>cluster0</title>
<polygon fill="none" stroke="black" points="8,-8 8,-136 197,-136 197,-8 8,-8"/>
</g>
<!-- Input0_0 -->
<g id="node1" class="node">
<title>Input0_0</title>
<polygon fill="royalblue" stroke="royalblue" points="188.5,-128 111.5,-128 111.5,-90 188.5,-90 188.5,-128"/>
<text text-anchor="middle" x="150" y="-112.8" font-family="Times,serif" font-size="14.00">Input</text>
<text text-anchor="middle" x="150" y="-97.8" font-family="Times,serif" font-size="14.00">i32[2, 3]</text>
</g>
<!-- Matmul2_0 -->
<g id="node3" class="node">
<title>Matmul2_0</title>
<polygon fill="crimson" stroke="crimson" points="140.5,-54 63.5,-54 63.5,-16 140.5,-16 140.5,-54"/>
<text text-anchor="middle" x="102" y="-38.8" font-family="Times,serif" font-size="14.00">Matmul</text>
<text text-anchor="middle" x="102" y="-23.8" font-family="Times,serif" font-size="14.00">i32[2, 4]</text>
</g>
<!-- Input0_0&#45;&gt;Matmul2_0 -->
<g id="edge1" class="edge">
<title>Input0_0&#45;&gt;Matmul2_0</title>
<path fill="none" stroke="black" d="M137.89,-89.83C132.47,-81.71 125.98,-71.96 120.01,-63.01"/>
<polygon fill="black" stroke="black" points="122.73,-60.79 114.28,-54.41 116.91,-64.68 122.73,-60.79"/>
</g>
<!-- Input1_0 -->
<g id="node2" class="node">
<title>Input1_0</title>
<polygon fill="royalblue" stroke="royalblue" points="93.5,-128 16.5,-128 16.5,-90 93.5,-90 93.5,-128"/>
<text text-anchor="middle" x="55" y="-112.8" font-family="Times,serif" font-size="14.00">Input</text>
<text text-anchor="middle" x="55" y="-97.8" font-family="Times,serif" font-size="14.00">i32[3, 4]</text>
</g>
<!-- Input1_0&#45;&gt;Matmul2_0 -->
<g id="edge2" class="edge">
<title>Input1_0&#45;&gt;Matmul2_0</title>
<path fill="none" stroke="black" d="M66.86,-89.83C72.16,-81.71 78.52,-71.96 84.37,-63.01"/>
<polygon fill="black" stroke="black" points="87.44,-64.7 89.98,-54.41 81.58,-60.87 87.44,-64.7"/>
</g>
</g>
</svg>
