<?xml version="1.0" encoding="UTF-8" standalone="no"?>
<!DOCTYPE svg PUBLIC "-//W3C//DTD SVG 1.1//EN"
 "http://www.w3.org/Graphics/SVG/1.1/DTD/svg11.dtd">
<!-- Generated by graphviz version 2.43.0 (0)
 -->
<!-- Title: %3 Pages: 1 -->
<svg width="275pt" height="870pt"
 viewBox="0.00 0.00 275.00 869.92" xmlns="http://www.w3.org/2000/svg" xmlns:xlink="http://www.w3.org/1999/xlink">
<g id="graph0" class="graph" transform="scale(1 1) rotate(0) translate(4 865.92)">
<title>%3</title>
<polygon fill="white" stroke="transparent" points="-4,4 -4,-865.92 271,-865.92 271,4 -4,4"/>
<g id="clust1" class="cluster">
<title>cluster0</title>
<polygon fill="none" stroke="black" points="8,-8 8,-853.92 259,-853.92 259,-8 8,-8"/>
</g>
<!-- Input0_0 -->
<g id="node1" class="node">
<title>Input0_0</title>
<polygon fill="royalblue" stroke="royalblue" points="173.5,-845.92 92.5,-845.92 92.5,-807.92 173.5,-807.92 173.5,-845.92"/>
<text text-anchor="middle" x="133" y="-830.72" font-family="Times,serif" font-size="14.00">Input</text>
<text text-anchor="middle" x="133" y="-815.72" font-family="Times,serif" font-size="14.00">b[16, 32]</text>
</g>
<!-- GetSlice1_0 -->
<g id="node2" class="node">
<title>GetSlice1_0</title>
<ellipse fill="none" stroke="black" cx="70" cy="-745.05" rx="54.39" ry="26.74"/>
<text text-anchor="middle" x="70" y="-748.85" font-family="Times,serif" font-size="14.00">GetSlice</text>
<text text-anchor="middle" x="70" y="-733.85" font-family="Times,serif" font-size="14.00">b[8, 32]</text>
</g>
<!-- Input0_0&#45;&gt;GetSlice1_0 -->
<g id="edge1" class="edge">
<title>Input0_0&#45;&gt;GetSlice1_0</title>
<path fill="none" stroke="black" d="M118.7,-807.8C111.83,-799.08 103.38,-788.37 95.45,-778.32"/>
<polygon fill="black" stroke="black" points="98.2,-776.15 89.26,-770.46 92.7,-780.48 98.2,-776.15"/>
</g>
<!-- GetSlice2_0 -->
<g id="node3" class="node">
<title>GetSlice2_0</title>
<ellipse fill="none" stroke="black" cx="197" cy="-745.05" rx="54.39" ry="26.74"/>
<text text-anchor="middle" x="197" y="-748.85" font-family="Times,serif" font-size="14.00">GetSlice</text>
<text text-anchor="middle" x="197" y="-733.85" font-family="Times,serif" font-size="14.00">b[8, 32]</text>
</g>
<!-- Input0_0&#45;&gt;GetSlice2_0 -->
<g id="edge2" class="edge">
<title>Input0_0&#45;&gt;GetSlice2_0</title>
<path fill="none" stroke="black" d="M147.52,-807.8C154.51,-799.08 163.09,-788.37 171.14,-778.32"/>
<polygon fill="black" stroke="black" points="173.92,-780.45 177.44,-770.46 168.45,-776.08 173.92,-780.45"/>
</g>
<!-- Min3_0 -->
<g id="node4" class="node">
<title>Min3_0</title>
<ellipse fill="none" stroke="black" cx="133" cy="-655.31" rx="50.82" ry="26.74"/>
<text text-anchor="middle" x="133" y="-659.11" font-family="Times,serif" font-size="14.00">Min</text>
<text text-anchor="middle" x="133" y="-644.11" font-family="Times,serif" font-size="14.00">b[8, 32]</text>
</g>
<!-- GetSlice1_0&#45;&gt;Min3_0 -->
<g id="edge3" class="edge">
<title>GetSlice1_0&#45;&gt;Min3_0</title>
<path fill="none" stroke="black" d="M87.55,-719.61C94.38,-710.1 102.3,-699.07 109.6,-688.9"/>
<polygon fill="black" stroke="black" points="112.56,-690.78 115.55,-680.62 106.87,-686.7 112.56,-690.78"/>
</g>
<!-- GetSlice2_0&#45;&gt;Min3_0 -->
<g id="edge4" class="edge">
<title>GetSlice2_0&#45;&gt;Min3_0</title>
<path fill="none" stroke="black" d="M179.17,-719.61C172.24,-710.1 164.19,-699.07 156.77,-688.9"/>
<polygon fill="black" stroke="black" points="159.45,-686.64 150.73,-680.62 153.8,-690.76 159.45,-686.64"/>
</g>
<!-- GetSlice4_0 -->
<g id="node5" class="node">
<title>GetSlice4_0</title>
<ellipse fill="none" stroke="black" cx="70" cy="-565.57" rx="54.39" ry="26.74"/>
<text text-anchor="middle" x="70" y="-569.37" font-family="Times,serif" font-size="14.00">GetSlice</text>
<text text-anchor="middle" x="70" y="-554.37" font-family="Times,serif" font-size="14.00">b[4, 32]</text>
</g>
<!-- Min3_0&#45;&gt;GetSlice4_0 -->
<g id="edge5" class="edge">
<title>Min3_0&#45;&gt;GetSlice4_0</title>
<path fill="none" stroke="black" d="M115.45,-629.87C108.68,-620.44 100.83,-609.51 93.59,-599.42"/>
<polygon fill="black" stroke="black" points="96.35,-597.27 87.67,-591.18 90.66,-601.35 96.35,-597.27"/>
</g>
<!-- GetSlice5_0 -->
<g id="node6" class="node">
<title>GetSlice5_0</title>
<ellipse fill="none" stroke="black" cx="197" cy="-565.57" rx="54.39" ry="26.74"/>
<text text-anchor="middle" x="197" y="-569.37" font-family="Times,serif" font-size="14.00">GetSlice</text>
<text text-anchor="middle" x="197" y="-554.37" font-family="Times,serif" font-size="14.00">b[4, 32]</text>
</g>
<!-- Min3_0&#45;&gt;GetSlice5_0 -->
<g id="edge6" class="edge">
<title>Min3_0&#45;&gt;GetSlice5_0</title>
<path fill="none" stroke="black" d="M150.83,-629.87C157.7,-620.44 165.68,-609.51 173.04,-599.42"/>
<polygon fill="black" stroke="black" points="175.98,-601.33 179.05,-591.18 170.33,-597.2 175.98,-601.33"/>
</g>
<!-- Min6_0 -->
<g id="node7" class="node">
<title>Min6_0</title>
<ellipse fill="none" stroke="black" cx="133" cy="-475.83" rx="50.82" ry="26.74"/>
<text text-anchor="middle" x="133" y="-479.63" font-family="Times,serif" font-size="14.00">Min</text>
<text text-anchor="middle" x="133" y="-464.63" font-family="Times,serif" font-size="14.00">b[4, 32]</text>
</g>
<!-- GetSlice4_0&#45;&gt;Min6_0 -->
<g id="edge7" class="edge">
<title>GetSlice4_0&#45;&gt;Min6_0</title>
<path fill="none" stroke="black" d="M87.55,-540.13C94.38,-530.62 102.3,-519.59 109.6,-509.42"/>
<polygon fill="black" stroke="black" points="112.56,-511.3 115.55,-501.14 106.87,-507.22 112.56,-511.3"/>
</g>
<!-- GetSlice5_0&#45;&gt;Min6_0 -->
<g id="edge8" class="edge">
<title>GetSlice5_0&#45;&gt;Min6_0</title>
<path fill="none" stroke="black" d="M179.17,-540.13C172.24,-530.62 164.19,-519.59 156.77,-509.42"/>
<polygon fill="black" stroke="black" points="159.45,-507.16 150.73,-501.14 153.8,-511.28 159.45,-507.16"/>
</g>
<!-- GetSlice7_0 -->
<g id="node8" class="node">
<title>GetSlice7_0</title>
<ellipse fill="none" stroke="black" cx="70" cy="-386.09" rx="54.39" ry="26.74"/>
<text text-anchor="middle" x="70" y="-389.89" font-family="Times,serif" font-size="14.00">GetSlice</text>
<text text-anchor="middle" x="70" y="-374.89" font-family="Times,serif" font-size="14.00">b[2, 32]</text>
</g>
<!-- Min6_0&#45;&gt;GetSlice7_0 -->
<g id="edge9" class="edge">
<title>Min6_0&#45;&gt;GetSlice7_0</title>
<path fill="none" stroke="black" d="M115.45,-450.39C108.68,-440.96 100.83,-430.03 93.59,-419.94"/>
<polygon fill="black" stroke="black" points="96.35,-417.79 87.67,-411.7 90.66,-421.87 96.35,-417.79"/>
</g>
<!-- GetSlice8_0 -->
<g id="node9" class="node">
<title>GetSlice8_0</title>
<ellipse fill="none" stroke="black" cx="197" cy="-386.09" rx="54.39" ry="26.74"/>
<text text-anchor="middle" x="197" y="-389.89" font-family="Times,serif" font-size="14.00">GetSlice</text>
<text text-anchor="middle" x="197" y="-374.89" font-family="Times,serif" font-size="14.00">b[2, 32]</text>
</g>
<!-- Min6_0&#45;&gt;GetSlice8_0 -->
<g id="edge10" class="edge">
<title>Min6_0&#45;&gt;GetSlice8_0</title>
<path fill="none" stroke="black" d="M150.83,-450.39C157.7,-440.96 165.68,-430.03 173.04,-419.94"/>
<polygon fill="black" stroke="black" points="175.98,-421.85 179.05,-411.7 170.33,-417.72 175.98,-421.85"/>
</g>
<!-- Min9_0 -->
<g id="node10" class="node">
<title>Min9_0</title>
<ellipse fill="none" stroke="black" cx="133" cy="-296.35" rx="50.82" ry="26.74"/>
<text text-anchor="middle" x="133" y="-300.15" font-family="Times,serif" font-size="14.00">Min</text>
<text text-anchor="middle" x="133" y="-285.15" font-family="Times,serif" font-size="14.00">b[2, 32]</text>
</g>
<!-- GetSlice7_0&#45;&gt;Min9_0 -->
<g id="edge11" class="edge">
<title>GetSlice7_0&#45;&gt;Min9_0</title>
<path fill="none" stroke="black" d="M87.55,-360.65C94.38,-351.14 102.3,-340.11 109.6,-329.94"/>
<polygon fill="black" stroke="black" points="112.56,-331.82 115.55,-321.66 106.87,-327.74 112.56,-331.82"/>
</g>
<!-- GetSlice8_0&#45;&gt;Min9_0 -->
<g id="edge12" class="edge">
<title>GetSlice8_0&#45;&gt;Min9_0</title>
<path fill="none" stroke="black" d="M179.17,-360.65C172.24,-351.14 164.19,-340.11 156.77,-329.94"/>
<polygon fill="black" stroke="black" points="159.45,-327.68 150.73,-321.66 153.8,-331.8 159.45,-327.68"/>
</g>
<!-- GetSlice10_0 -->
<g id="node11" class="node">
<title>GetSlice10_0</title>
<ellipse fill="none" stroke="black" cx="70" cy="-206.61" rx="54.39" ry="26.74"/>
<text text-anchor="middle" x="70" y="-210.41" font-family="Times,serif" font-size="14.00">GetSlice</text>
<text text-anchor="middle" x="70" y="-195.41" font-family="Times,serif" font-size="14.00">b[1, 32]</text>
</g>
<!-- Min9_0&#45;&gt;GetSlice10_0 -->
<g id="edge13" class="edge">
<title>Min9_0&#45;&gt;GetSlice10_0</title>
<path fill="none" stroke="black" d="M115.45,-270.91C108.68,-261.48 100.83,-250.55 93.59,-240.46"/>
<polygon fill="black" stroke="black" points="96.35,-238.31 87.67,-232.22 90.66,-242.39 96.35,-238.31"/>
</g>
<!-- GetSlice11_0 -->
<g id="node12" class="node">
<title>GetSlice11_0</title>
<ellipse fill="none" stroke="black" cx="197" cy="-206.61" rx="54.39" ry="26.74"/>
<text text-anchor="middle" x="197" y="-210.41" font-family="Times,serif" font-size="14.00">GetSlice</text>
<text text-anchor="middle" x="197" y="-195.41" font-family="Times,serif" font-size="14.00">b[1, 32]</text>
</g>
<!-- Min9_0&#45;&gt;GetSlice11_0 -->
<g id="edge14" class="edge">
<title>Min9_0&#45;&gt;GetSlice11_0</title>
<path fill="none" stroke="black" d="M150.83,-270.91C157.7,-261.48 165.68,-250.55 173.04,-240.46"/>
<polygon fill="black" stroke="black" points="175.98,-242.37 179.05,-232.22 170.33,-238.24 175.98,-242.37"/>
</g>
<!-- Min12_0 -->
<g id="node13" class="node">
<title>Min12_0</title>
<ellipse fill="none" stroke="black" cx="133" cy="-116.87" rx="50.82" ry="26.74"/>
<text text-anchor="middle" x="133" y="-120.67" font-family="Times,serif" font-size="14.00">Min</text>
<text text-anchor="middle" x="133" y="-105.67" font-family="Times,serif" font-size="14.00">b[1, 32]</text>
</g>
<!-- GetSlice10_0&#45;&gt;Min12_0 -->
<g id="edge15" class="edge">
<title>GetSlice10_0&#45;&gt;Min12_0</title>
<path fill="none" stroke="black" d="M87.55,-181.17C94.38,-171.66 102.3,-160.63 109.6,-150.46"/>
<polygon fill="black" stroke="black" points="112.56,-152.34 115.55,-142.18 106.87,-148.26 112.56,-152.34"/>
</g>
<!-- GetSlice11_0&#45;&gt;Min12_0 -->
<g id="edge16" class="edge">
<title>GetSlice11_0&#45;&gt;Min12_0</title>
<path fill="none" stroke="black" d="M179.17,-181.17C172.24,-171.66 164.19,-160.63 156.77,-150.46"/>
<polygon fill="black" stroke="black" points="159.45,-148.2 150.73,-142.18 153.8,-152.32 159.45,-148.2"/>
</g>
<!-- B2A13_0 -->
<g id="node14" class="node">
<title>B2A13_0</title>
<polygon fill="crimson" stroke="crimson" points="164.5,-54 101.5,-54 101.5,-16 164.5,-16 164.5,-54"/>
<text text-anchor="middle" x="133" y="-38.8" font-family="Times,serif" font-size="14.00">B2A</text>
<text text-anchor="middle" x="133" y="-23.8" font-family="Times,serif" font-size="14.00">u32[1]</text>
</g>
<!-- Min12_0&#45;&gt;B2A13_0 -->
<g id="edge17" class="edge">
<title>Min12_0&#45;&gt;B2A13_0</title>
<path fill="none" stroke="black" d="M133,-89.72C133,-81.53 133,-72.46 133,-64.14"/>
<polygon fill="black" stroke="black" points="136.5,-64.12 133,-54.12 129.5,-64.12 136.5,-64.12"/>
</g>
</g>
</svg>
