<?xml version="1.0" encoding="UTF-8" standalone="no"?>
<!DOCTYPE svg PUBLIC "-//W3C//DTD SVG 1.1//EN"
 "http://www.w3.org/Graphics/SVG/1.1/DTD/svg11.dtd">
<!-- Generated by graphviz version 2.43.0 (0)
 -->
<!-- Title: %3 Pages: 1 -->
<svg width="275pt" height="780pt"
 viewBox="0.00 0.00 275.00 780.18" xmlns="http://www.w3.org/2000/svg" xmlns:xlink="http://www.w3.org/1999/xlink">
<g id="graph0" class="graph" transform="scale(1 1) rotate(0) translate(4 776.18)">
<title>%3</title>
<polygon fill="white" stroke="transparent" points="-4,4 -4,-776.18 271,-776.18 271,4 -4,4"/>
<g id="clust1" class="cluster">
<title>cluster0</title>
<polygon fill="none" stroke="black" points="8,-8 8,-764.18 259,-764.18 259,-8 8,-8"/>
</g>
<!-- Input0_0 -->
<g id="node1" class="node">
<title>Input0_0</title>
<polygon fill="royalblue" stroke="royalblue" points="173.5,-756.18 92.5,-756.18 92.5,-718.18 173.5,-718.18 173.5,-756.18"/>
<text text-anchor="middle" x="133" y="-740.98" font-family="Times,serif" font-size="14.00">Input</text>
<text text-anchor="middle" x="133" y="-725.98" font-family="Times,serif" font-size="14.00">b[16, 32]</text>
</g>
<!-- GetSlice1_0 -->
<g id="node2" class="node">
<title>GetSlice1_0</title>
<ellipse fill="none" stroke="black" cx="70" cy="-655.31" rx="54.39" ry="26.74"/>
<text text-anchor="middle" x="70" y="-659.11" font-family="Times,serif" font-size="14.00">GetSlice</text>
<text text-anchor="middle" x="70" y="-644.11" font-family="Times,serif" font-size="14.00">b[8, 32]</text>
</g>
<!-- Input0_0&#45;&gt;GetSlice1_0 -->
<g id="edge1" class="edge">
<title>Input0_0&#45;&gt;GetSlice1_0</title>
<path fill="none" stroke="black" d="M118.7,-718.06C111.83,-709.34 103.38,-698.63 95.45,-688.58"/>
<polygon fill="black" stroke="black" points="98.2,-686.41 89.26,-680.72 92.7,-690.74 98.2,-686.41"/>
</g>
<!-- GetSlice2_0 -->
<g id="node3" class="node">
<title>GetSlice2_0</title>
<ellipse fill="none" stroke="black" cx="197" cy="-655.31" rx="54.39" ry="26.74"/>
<text text-anchor="middle" x="197" y="-659.11" font-family="Times,serif" font-size="14.00">GetSlice</text>
<text text-anchor="middle" x="197" y="-644.11" font-family="Times,serif" font-size="14.00">b[8, 32]</text>
</g>
<!-- Input0_0&#45;&gt;GetSlice2_0 -->
<g id="edge2" class="edge">
<title>Input0_0&#45;&gt;GetSlice2_0</title>
<path fill="none" stroke="black" d="M147.52,-718.06C154.51,-709.34 163.09,-698.63 171.14,-688.58"/>
<polygon fill="black" stroke="black" points="173.92,-690.71 177.44,-680.72 168.45,-686.34 173.92,-690.71"/>
</g>
<!-- Min3_0 -->
<g id="node4" class="node">
<title>Min3_0</title>
<ellipse fill="none" stroke="black" cx="133" cy="-565.57" rx="50.82" ry="26.74"/>
<text text-anchor="middle" x="133" y="-569.37" font-family="Times,serif" font-size="14.00">Min</text>
<text text-anchor="middle" x="133" y="-554.37" font-family="Times,serif" font-size="14.00">b[8, 32]</text>
</g>
<!-- GetSlice1_0&#45;&gt;Min3_0 -->
<g id="edge3" class="edge">
<title>GetSlice1_0&#45;&gt;Min3_0</title>
<path fill="none" stroke="black" d="M87.55,-629.87C94.38,-620.36 102.3,-609.33 109.6,-599.16"/>
<polygon fill="black" stroke="black" points="112.56,-601.04 115.55,-590.88 106.87,-596.96 112.56,-601.04"/>
</g>
<!-- GetSlice2_0&#45;&gt;Min3_0 -->
<g id="edge4" class="edge">
<title>GetSlice2_0&#45;&gt;Min3_0</title>
<path fill="none" stroke="black" d="M179.17,-629.87C172.24,-620.36 164.19,-609.33 156.77,-599.16"/>
<polygon fill="black" stroke="black" points="159.45,-596.9 150.73,-590.88 153.8,-601.02 159.45,-596.9"/>
</g>
<!-- GetSlice4_0 -->
<g id="node5" class="node">
<title>GetSlice4_0</title>
<ellipse fill="none" stroke="black" cx="70" cy="-475.83" rx="54.39" ry="26.74"/>
<text text-anchor="middle" x="70" y="-479.63" font-family="Times,serif" font-size="14.00">GetSlice</text>
<text text-anchor="middle" x="70" y="-464.63" font-family="Times,serif" font-size="14.00">b[4, 32]</text>
</g>
<!-- Min3_0&#45;&gt;GetSlice4_0 -->
<g id="edge5" class="edge">
<title>Min3_0&#45;&gt;GetSlice4_0</title>
<path fill="none" stroke="black" d="M115.45,-540.13C108.68,-530.7 100.83,-519.77 93.59,-509.68"/>
<polygon fill="black" stroke="black" points="96.35,-507.53 87.67,-501.44 90.66,-511.61 96.35,-507.53"/>
</g>
<!-- GetSlice5_0 -->
<g id="node6" class="node">
<title>GetSlice5_0</title>
<ellipse fill="none" stroke="black" cx="197" cy="-475.83" rx="54.39" ry="26.74"/>
<text text-anchor="middle" x="197" y="-479.63" font-family="Times,serif" font-size="14.00">GetSlice</text>
<text text-anchor="middle" x="197" y="-464.63" font-family="Times,serif" font-size="14.00">b[4, 32]</text>
</g>
<!-- Min3_0&#45;&gt;GetSlice5_0 -->
<g id="edge6" class="edge">
<title>Min3_0&#45;&gt;GetSlice5_0</title>
<path fill="none" stroke="black" d="M150.83,-540.13C157.7,-530.7 165.68,-519.77 173.04,-509.68"/>
<polygon fill="black" stroke="black" points="175.98,-511.59 179.05,-501.44 170.33,-507.46 175.98,-511.59"/>
</g>
<!-- Min6_0 -->
<g id="node7" class="node">
<title>Min6_0</title>
<ellipse fill="none" stroke="black" cx="133" cy="-386.09" rx="50.82" ry="26.74"/>
<text text-anchor="middle" x="133" y="-389.89" font-family="Times,serif" font-size="14.00">Min</text>
<text text-anchor="middle" x="133" y="-374.89" font-family="Times,serif" font-size="14.00">b[4, 32]</text>
</g>
<!-- GetSlice4_0&#45;&gt;Min6_0 -->
<g id="edge7" class="edge">
<title>GetSlice4_0&#45;&gt;Min6_0</title>
<path fill="none" stroke="black" d="M87.55,-450.39C94.38,-440.88 102.3,-429.85 109.6,-419.68"/>
<polygon fill="black" stroke="black" points="112.56,-421.56 115.55,-411.4 106.87,-417.48 112.56,-421.56"/>
</g>
<!-- GetSlice5_0&#45;&gt;Min6_0 -->
<g id="edge8" class="edge">
<title>GetSlice5_0&#45;&gt;Min6_0</title>
<path fill="none" stroke="black" d="M179.17,-450.39C172.24,-440.88 164.19,-429.85 156.77,-419.68"/>
<polygon fill="black" stroke="black" points="159.45,-417.42 150.73,-411.4 153.8,-421.54 159.45,-417.42"/>
</g>
<!-- GetSlice7_0 -->
<g id="node8" class="node">
<title>GetSlice7_0</title>
<ellipse fill="none" stroke="black" cx="70" cy="-296.35" rx="54.39" ry="26.74"/>
<text text-anchor="middle" x="70" y="-300.15" font-family="Times,serif" font-size="14.00">GetSlice</text>
<text text-anchor="middle" x="70" y="-285.15" font-family="Times,serif" font-size="14.00">b[2, 32]</text>
</g>
<!-- Min6_0&#45;&gt;GetSlice7_0 -->
<g id="edge9" class="edge">
<title>Min6_0&#45;&gt;GetSlice7_0</title>
<path fill="none" stroke="black" d="M115.45,-360.65C108.68,-351.22 100.83,-340.29 93.59,-330.2"/>
<polygon fill="black" stroke="black" points="96.35,-328.05 87.67,-321.96 90.66,-332.13 96.35,-328.05"/>
</g>
<!-- GetSlice8_0 -->
<g id="node9" class="node">
<title>GetSlice8_0</title>
<ellipse fill="none" stroke="black" cx="197" cy="-296.35" rx="54.39" ry="26.74"/>
<text text-anchor="middle" x="197" y="-300.15" font-family="Times,serif" font-size="14.00">GetSlice</text>
<text text-anchor="middle" x="197" y="-285.15" font-family="Times,serif" font-size="14.00">b[2, 32]</text>
</g>
<!-- Min6_0&#45;&gt;GetSlice8_0 -->
<g id="edge10" class="edge">
<title>Min6_0&#45;&gt;GetSlice8_0</title>
<path fill="none" stroke="black" d="M150.83,-360.65C157.7,-351.22 165.68,-340.29 173.04,-330.2"/>
<polygon fill="black" stroke="black" points="175.98,-332.11 179.05,-321.96 170.33,-327.98 175.98,-332.11"/>
</g>
<!-- Min9_0 -->
<g id="node10" class="node">
<title>Min9_0</title>
<ellipse fill="none" stroke="black" cx="133" cy="-206.61" rx="50.82" ry="26.74"/>
<text text-anchor="middle" x="133" y="-210.41" font-family="Times,serif" font-size="14.00">Min</text>
<text text-anchor="middle" x="133" y="-195.41" font-family="Times,serif" font-size="14.00">b[2, 32]</text>
</g>
<!-- GetSlice7_0&#45;&gt;Min9_0 -->
<g id="edge11" class="edge">
<title>GetSlice7_0&#45;&gt;Min9_0</title>
<path fill="none" stroke="black" d="M87.55,-270.91C94.38,-261.4 102.3,-250.37 109.6,-240.2"/>
<polygon fill="black" stroke="black" points="112.56,-242.08 115.55,-231.92 106.87,-238 112.56,-242.08"/>
</g>
<!-- GetSlice8_0&#45;&gt;Min9_0 -->
<g id="edge12" class="edge">
<title>GetSlice8_0&#45;&gt;Min9_0</title>
<path fill="none" stroke="black" d="M179.17,-270.91C172.24,-261.4 164.19,-250.37 156.77,-240.2"/>
<polygon fill="black" stroke="black" points="159.45,-237.94 150.73,-231.92 153.8,-242.06 159.45,-237.94"/>
</g>
<!-- GetSlice10_0 -->
<g id="node11" class="node">
<title>GetSlice10_0</title>
<ellipse fill="none" stroke="black" cx="70" cy="-116.87" rx="54.39" ry="26.74"/>
<text text-anchor="middle" x="70" y="-120.67" font-family="Times,serif" font-size="14.00">GetSlice</text>
<text text-anchor="middle" x="70" y="-105.67" font-family="Times,serif" font-size="14.00">b[1, 32]</text>
</g>
<!-- Min9_0&#45;&gt;GetSlice10_0 -->
<g id="edge13" class="edge">
<title>Min9_0&#45;&gt;GetSlice10_0</title>
<path fill="none" stroke="black" d="M115.45,-181.17C108.68,-171.74 100.83,-160.81 93.59,-150.72"/>
<polygon fill="black" stroke="black" points="96.35,-148.57 87.67,-142.48 90.66,-152.65 96.35,-148.57"/>
</g>
<!-- GetSlice11_0 -->
<g id="node12" class="node">
<title>GetSlice11_0</title>
<ellipse fill="none" stroke="black" cx="197" cy="-116.87" rx="54.39" ry="26.74"/>
<text text-anchor="middle" x="197" y="-120.67" font-family="Times,serif" font-size="14.00">GetSlice</text>
<text text-anchor="middle" x="197" y="-105.67" font-family="Times,serif" font-size="14.00">b[1, 32]</text>
</g>
<!-- Min9_0&#45;&gt;GetSlice11_0 -->
<g id="edge14" class="edge">
<title>Min9_0&#45;&gt;GetSlice11_0</title>
<path fill="none" stroke="black" d="M150.83,-181.17C157.7,-171.74 165.68,-160.81 173.04,-150.72"/>
<polygon fill="black" stroke="black" points="175.98,-152.63 179.05,-142.48 170.33,-148.5 175.98,-152.63"/>
</g>
<!-- Min12_0 -->
<g id="node13" class="node">
<title>Min12_0</title>
<polygon fill="crimson" stroke="crimson" points="169,-54 97,-54 97,-16 169,-16 169,-54"/>
<text text-anchor="middle" x="133" y="-38.8" font-family="Times,serif" font-size="14.00">Min</text>
<text text-anchor="middle" x="133" y="-23.8" font-family="Times,serif" font-size="14.00">b[1, 32]</text>
</g>
<!-- GetSlice10_0&#45;&gt;Min12_0 -->
<g id="edge15" class="edge">
<title>GetSlice10_0&#45;&gt;Min12_0</title>
<path fill="none" stroke="black" d="M89.24,-91.47C96.58,-82.18 104.96,-71.55 112.41,-62.1"/>
<polygon fill="black" stroke="black" points="115.23,-64.18 118.67,-54.16 109.73,-59.85 115.23,-64.18"/>
</g>
<!-- GetSlice11_0&#45;&gt;Min12_0 -->
<g id="edge16" class="edge">
<title>GetSlice11_0&#45;&gt;Min12_0</title>
<path fill="none" stroke="black" d="M177.45,-91.47C170,-82.18 161.49,-71.55 153.91,-62.1"/>
<polygon fill="black" stroke="black" points="156.54,-59.78 147.56,-54.16 151.08,-64.16 156.54,-59.78"/>
</g>
</g>
</svg>
