<?xml version="1.0" encoding="UTF-8" standalone="no"?>
<!DOCTYPE svg PUBLIC "-//W3C//DTD SVG 1.1//EN"
 "http://www.w3.org/Graphics/SVG/1.1/DTD/svg11.dtd">
<!-- Generated by graphviz version 2.43.0 (0)
 -->
<!-- Title: %3 Pages: 1 -->
<svg width="1282pt" height="1393pt"
 viewBox="0.00 0.00 1282.00 1393.11" xmlns="http://www.w3.org/2000/svg" xmlns:xlink="http://www.w3.org/1999/xlink">
<g id="graph0" class="graph" transform="scale(1 1) rotate(0) translate(4 1389.11)">
<title>%3</title>
<polygon fill="white" stroke="transparent" points="-4,4 -4,-1389.11 1278,-1389.11 1278,4 -4,4"/>
<g id="clust1" class="cluster">
<title>cluster0</title>
<polygon fill="none" stroke="black" points="8,-8 8,-1377.11 1266,-1377.11 1266,-8 8,-8"/>
</g>
<!-- Random0_0 -->
<g id="node1" class="node">
<title>Random0_0</title>
<ellipse fill="none" stroke="black" cx="757" cy="-1241.9" rx="53.07" ry="26.74"/>
<text text-anchor="middle" x="757" y="-1245.7" font-family="Times,serif" font-size="14.00">Random</text>
<text text-anchor="middle" x="757" y="-1230.7" font-family="Times,serif" font-size="14.00">b[128]</text>
</g>
<!-- NOP1_0 -->
<g id="node2" class="node">
<title>NOP1_0</title>
<ellipse fill="none" stroke="black" cx="750" cy="-1130.94" rx="69.09" ry="37.45"/>
<text text-anchor="middle" x="750" y="-1142.24" font-family="Times,serif" font-size="14.00">NOP</text>
<text text-anchor="middle" x="750" y="-1127.24" font-family="Times,serif" font-size="14.00">Send[0&#45;&gt;2]</text>
<text text-anchor="middle" x="750" y="-1112.24" font-family="Times,serif" font-size="14.00">b[128]</text>
</g>
<!-- Random0_0&#45;&gt;NOP1_0 -->
<g id="edge1" class="edge">
<title>Random0_0&#45;&gt;NOP1_0</title>
<path fill="none" stroke="black" d="M755.32,-1214.8C754.63,-1203.98 753.8,-1191.09 753.01,-1178.73"/>
<polygon fill="black" stroke="black" points="756.49,-1178.29 752.35,-1168.54 749.5,-1178.74 756.49,-1178.29"/>
</g>
<!-- PRF7_0 -->
<g id="node8" class="node">
<title>PRF7_0</title>
<ellipse fill="none" stroke="black" cx="583" cy="-1030.6" rx="54.39" ry="26.74"/>
<text text-anchor="middle" x="583" y="-1034.4" font-family="Times,serif" font-size="14.00">PRF</text>
<text text-anchor="middle" x="583" y="-1019.4" font-family="Times,serif" font-size="14.00">i64[5, 5]</text>
</g>
<!-- NOP1_0&#45;&gt;PRF7_0 -->
<g id="edge4" class="edge">
<title>NOP1_0&#45;&gt;PRF7_0</title>
<path fill="none" stroke="black" d="M703.92,-1102.81C679.53,-1088.44 649.75,-1070.91 625.85,-1056.83"/>
<polygon fill="black" stroke="black" points="627.4,-1053.68 617.01,-1051.62 623.85,-1059.71 627.4,-1053.68"/>
</g>
<!-- PRF18_0 -->
<g id="node19" class="node">
<title>PRF18_0</title>
<ellipse fill="none" stroke="black" cx="710" cy="-1030.6" rx="54.39" ry="26.74"/>
<text text-anchor="middle" x="710" y="-1034.4" font-family="Times,serif" font-size="14.00">PRF</text>
<text text-anchor="middle" x="710" y="-1019.4" font-family="Times,serif" font-size="14.00">i64[5, 5]</text>
</g>
<!-- NOP1_0&#45;&gt;PRF18_0 -->
<g id="edge18" class="edge">
<title>NOP1_0&#45;&gt;PRF18_0</title>
<path fill="none" stroke="black" d="M735.45,-1094.16C731.77,-1085.13 727.83,-1075.44 724.18,-1066.45"/>
<polygon fill="black" stroke="black" points="727.36,-1064.98 720.35,-1057.04 720.87,-1067.62 727.36,-1064.98"/>
</g>
<!-- PRF40_0 -->
<g id="node41" class="node">
<title>PRF40_0</title>
<ellipse fill="none" stroke="black" cx="1110" cy="-1030.6" rx="54.39" ry="26.74"/>
<text text-anchor="middle" x="1110" y="-1034.4" font-family="Times,serif" font-size="14.00">PRF</text>
<text text-anchor="middle" x="1110" y="-1019.4" font-family="Times,serif" font-size="14.00">i64[5, 5]</text>
</g>
<!-- NOP1_0&#45;&gt;PRF40_0 -->
<g id="edge56" class="edge">
<title>NOP1_0&#45;&gt;PRF40_0</title>
<path fill="none" stroke="black" d="M814.55,-1116.95C875.02,-1104.11 967.58,-1082.77 1046,-1057.47 1050.6,-1055.98 1055.35,-1054.32 1060.07,-1052.58"/>
<polygon fill="black" stroke="black" points="1061.6,-1055.74 1069.7,-1048.91 1059.11,-1049.2 1061.6,-1055.74"/>
</g>
<!-- Random2_0 -->
<g id="node3" class="node">
<title>Random2_0</title>
<ellipse fill="none" stroke="black" cx="456" cy="-1342.24" rx="53.07" ry="26.74"/>
<text text-anchor="middle" x="456" y="-1346.04" font-family="Times,serif" font-size="14.00">Random</text>
<text text-anchor="middle" x="456" y="-1331.04" font-family="Times,serif" font-size="14.00">b[128]</text>
</g>
<!-- NOP3_0 -->
<g id="node4" class="node">
<title>NOP3_0</title>
<ellipse fill="none" stroke="black" cx="456" cy="-1241.9" rx="69.09" ry="37.45"/>
<text text-anchor="middle" x="456" y="-1253.2" font-family="Times,serif" font-size="14.00">NOP</text>
<text text-anchor="middle" x="456" y="-1238.2" font-family="Times,serif" font-size="14.00">Send[1&#45;&gt;0]</text>
<text text-anchor="middle" x="456" y="-1223.2" font-family="Times,serif" font-size="14.00">b[128]</text>
</g>
<!-- Random2_0&#45;&gt;NOP3_0 -->
<g id="edge2" class="edge">
<title>Random2_0&#45;&gt;NOP3_0</title>
<path fill="none" stroke="black" d="M456,-1315.15C456,-1307.29 456,-1298.43 456,-1289.66"/>
<polygon fill="black" stroke="black" points="459.5,-1289.48 456,-1279.48 452.5,-1289.48 459.5,-1289.48"/>
</g>
<!-- PRF8_0 -->
<g id="node9" class="node">
<title>PRF8_0</title>
<ellipse fill="none" stroke="black" cx="456" cy="-1030.6" rx="54.39" ry="26.74"/>
<text text-anchor="middle" x="456" y="-1034.4" font-family="Times,serif" font-size="14.00">PRF</text>
<text text-anchor="middle" x="456" y="-1019.4" font-family="Times,serif" font-size="14.00">i64[5, 5]</text>
</g>
<!-- NOP3_0&#45;&gt;PRF8_0 -->
<g id="edge5" class="edge">
<title>NOP3_0&#45;&gt;PRF8_0</title>
<path fill="none" stroke="black" d="M456,-1203.96C456,-1165.56 456,-1105.84 456,-1067.73"/>
<polygon fill="black" stroke="black" points="459.5,-1067.59 456,-1057.59 452.5,-1067.59 459.5,-1067.59"/>
</g>
<!-- PRF19_0 -->
<g id="node20" class="node">
<title>PRF19_0</title>
<ellipse fill="none" stroke="black" cx="383" cy="-1130.94" rx="54.39" ry="26.74"/>
<text text-anchor="middle" x="383" y="-1134.74" font-family="Times,serif" font-size="14.00">PRF</text>
<text text-anchor="middle" x="383" y="-1119.74" font-family="Times,serif" font-size="14.00">i64[5, 5]</text>
</g>
<!-- NOP3_0&#45;&gt;PRF19_0 -->
<g id="edge19" class="edge">
<title>NOP3_0&#45;&gt;PRF19_0</title>
<path fill="none" stroke="black" d="M432.9,-1206.42C424.15,-1193.35 414.19,-1178.5 405.49,-1165.52"/>
<polygon fill="black" stroke="black" points="408.18,-1163.23 399.7,-1156.87 402.36,-1167.13 408.18,-1163.23"/>
</g>
<!-- PRF41_0 -->
<g id="node42" class="node">
<title>PRF41_0</title>
<ellipse fill="none" stroke="black" cx="837" cy="-1030.6" rx="54.39" ry="26.74"/>
<text text-anchor="middle" x="837" y="-1034.4" font-family="Times,serif" font-size="14.00">PRF</text>
<text text-anchor="middle" x="837" y="-1019.4" font-family="Times,serif" font-size="14.00">i64[5, 5]</text>
</g>
<!-- NOP3_0&#45;&gt;PRF41_0 -->
<g id="edge57" class="edge">
<title>NOP3_0&#45;&gt;PRF41_0</title>
<path fill="none" stroke="black" d="M458.65,-1204.16C462.25,-1165.47 470.15,-1108.16 486,-1093.47 533.14,-1049.77 710.79,-1073.65 773,-1057.47 777.95,-1056.18 783.02,-1054.6 788.05,-1052.87"/>
<polygon fill="black" stroke="black" points="789.41,-1056.1 797.6,-1049.38 787,-1049.53 789.41,-1056.1"/>
</g>
<!-- Random4_0 -->
<g id="node5" class="node">
<title>Random4_0</title>
<ellipse fill="none" stroke="black" cx="617" cy="-1342.24" rx="53.07" ry="26.74"/>
<text text-anchor="middle" x="617" y="-1346.04" font-family="Times,serif" font-size="14.00">Random</text>
<text text-anchor="middle" x="617" y="-1331.04" font-family="Times,serif" font-size="14.00">b[128]</text>
</g>
<!-- NOP5_0 -->
<g id="node6" class="node">
<title>NOP5_0</title>
<ellipse fill="none" stroke="black" cx="617" cy="-1241.9" rx="69.09" ry="37.45"/>
<text text-anchor="middle" x="617" y="-1253.2" font-family="Times,serif" font-size="14.00">NOP</text>
<text text-anchor="middle" x="617" y="-1238.2" font-family="Times,serif" font-size="14.00">Send[2&#45;&gt;1]</text>
<text text-anchor="middle" x="617" y="-1223.2" font-family="Times,serif" font-size="14.00">b[128]</text>
</g>
<!-- Random4_0&#45;&gt;NOP5_0 -->
<g id="edge3" class="edge">
<title>Random4_0&#45;&gt;NOP5_0</title>
<path fill="none" stroke="black" d="M617,-1315.15C617,-1307.29 617,-1298.43 617,-1289.66"/>
<polygon fill="black" stroke="black" points="620.5,-1289.48 617,-1279.48 613.5,-1289.48 620.5,-1289.48"/>
</g>
<!-- PRF9_0 -->
<g id="node10" class="node">
<title>PRF9_0</title>
<ellipse fill="none" stroke="black" cx="310" cy="-1030.6" rx="54.39" ry="26.74"/>
<text text-anchor="middle" x="310" y="-1034.4" font-family="Times,serif" font-size="14.00">PRF</text>
<text text-anchor="middle" x="310" y="-1019.4" font-family="Times,serif" font-size="14.00">i64[5, 5]</text>
</g>
<!-- NOP5_0&#45;&gt;PRF9_0 -->
<g id="edge6" class="edge">
<title>NOP5_0&#45;&gt;PRF9_0</title>
<path fill="none" stroke="black" d="M627.38,-1204.72C634.46,-1171.66 638.37,-1123.48 612,-1093.47 579.45,-1056.42 440.99,-1068.83 393,-1057.47 383.52,-1055.22 373.54,-1052.46 363.91,-1049.59"/>
<polygon fill="black" stroke="black" points="364.64,-1046.15 354.05,-1046.58 362.59,-1052.85 364.64,-1046.15"/>
</g>
<!-- PRF20_0 -->
<g id="node21" class="node">
<title>PRF20_0</title>
<ellipse fill="none" stroke="black" cx="549" cy="-1130.94" rx="54.39" ry="26.74"/>
<text text-anchor="middle" x="549" y="-1134.74" font-family="Times,serif" font-size="14.00">PRF</text>
<text text-anchor="middle" x="549" y="-1119.74" font-family="Times,serif" font-size="14.00">i64[5, 5]</text>
</g>
<!-- NOP5_0&#45;&gt;PRF20_0 -->
<g id="edge20" class="edge">
<title>NOP5_0&#45;&gt;PRF20_0</title>
<path fill="none" stroke="black" d="M595.3,-1206.12C587.15,-1193.07 577.91,-1178.27 569.84,-1165.34"/>
<polygon fill="black" stroke="black" points="572.74,-1163.37 564.47,-1156.74 566.8,-1167.07 572.74,-1163.37"/>
</g>
<!-- PRF42_0 -->
<g id="node43" class="node">
<title>PRF42_0</title>
<ellipse fill="none" stroke="black" cx="983" cy="-1030.6" rx="54.39" ry="26.74"/>
<text text-anchor="middle" x="983" y="-1034.4" font-family="Times,serif" font-size="14.00">PRF</text>
<text text-anchor="middle" x="983" y="-1019.4" font-family="Times,serif" font-size="14.00">i64[5, 5]</text>
</g>
<!-- NOP5_0&#45;&gt;PRF42_0 -->
<g id="edge58" class="edge">
<title>NOP5_0&#45;&gt;PRF42_0</title>
<path fill="none" stroke="black" d="M620.31,-1204.24C625.44,-1170.1 638.55,-1120.54 672,-1093.47 756.87,-1024.78 809.36,-1085.04 915,-1057.47 920.79,-1055.95 926.77,-1054.12 932.67,-1052.12"/>
<polygon fill="black" stroke="black" points="934.22,-1055.29 942.47,-1048.65 931.88,-1048.69 934.22,-1055.29"/>
</g>
<!-- Input6_0 -->
<g id="node7" class="node">
<title>Input6_0</title>
<polygon fill="royalblue" stroke="royalblue" points="868.5,-959.86 791.5,-959.86 791.5,-921.86 868.5,-921.86 868.5,-959.86"/>
<text text-anchor="middle" x="830" y="-944.66" font-family="Times,serif" font-size="14.00">Input</text>
<text text-anchor="middle" x="830" y="-929.66" font-family="Times,serif" font-size="14.00">i64[5, 5]</text>
</g>
<!-- Add13_0 -->
<g id="node14" class="node">
<title>Add13_0</title>
<ellipse fill="none" stroke="black" cx="810" cy="-840.51" rx="54.39" ry="26.74"/>
<text text-anchor="middle" x="810" y="-844.31" font-family="Times,serif" font-size="14.00">Add</text>
<text text-anchor="middle" x="810" y="-829.31" font-family="Times,serif" font-size="14.00">i64[5, 5]</text>
</g>
<!-- Input6_0&#45;&gt;Add13_0 -->
<g id="edge14" class="edge">
<title>Input6_0&#45;&gt;Add13_0</title>
<path fill="none" stroke="black" d="M826.33,-921.82C823.82,-909.47 820.41,-892.68 817.35,-877.64"/>
<polygon fill="black" stroke="black" points="820.73,-876.69 815.3,-867.59 813.87,-878.08 820.73,-876.69"/>
</g>
<!-- Subtract10_0 -->
<g id="node11" class="node">
<title>Subtract10_0</title>
<ellipse fill="none" stroke="black" cx="588" cy="-940.86" rx="55.72" ry="26.74"/>
<text text-anchor="middle" x="588" y="-944.66" font-family="Times,serif" font-size="14.00">Subtract</text>
<text text-anchor="middle" x="588" y="-929.66" font-family="Times,serif" font-size="14.00">i64[5, 5]</text>
</g>
<!-- PRF7_0&#45;&gt;Subtract10_0 -->
<g id="edge7" class="edge">
<title>PRF7_0&#45;&gt;Subtract10_0</title>
<path fill="none" stroke="black" d="M584.5,-1003.27C584.95,-995.31 585.46,-986.41 585.94,-977.93"/>
<polygon fill="black" stroke="black" points="589.44,-978.04 586.52,-967.86 582.45,-977.65 589.44,-978.04"/>
</g>
<!-- Subtract12_0 -->
<g id="node13" class="node">
<title>Subtract12_0</title>
<ellipse fill="none" stroke="black" cx="328" cy="-940.86" rx="55.72" ry="26.74"/>
<text text-anchor="middle" x="328" y="-944.66" font-family="Times,serif" font-size="14.00">Subtract</text>
<text text-anchor="middle" x="328" y="-929.66" font-family="Times,serif" font-size="14.00">i64[5, 5]</text>
</g>
<!-- PRF7_0&#45;&gt;Subtract12_0 -->
<g id="edge12" class="edge">
<title>PRF7_0&#45;&gt;Subtract12_0</title>
<path fill="none" stroke="black" d="M542.62,-1012.52C534.83,-1009.44 526.71,-1006.38 519,-1003.73 463.92,-984.79 448.13,-986.52 393,-967.73 388.43,-966.17 383.71,-964.47 378.99,-962.71"/>
<polygon fill="black" stroke="black" points="379.97,-959.34 369.38,-959.05 377.48,-965.88 379.97,-959.34"/>
</g>
<!-- PRF8_0&#45;&gt;Subtract10_0 -->
<g id="edge8" class="edge">
<title>PRF8_0&#45;&gt;Subtract10_0</title>
<path fill="none" stroke="black" d="M487.62,-1008.58C505.61,-996.62 528.33,-981.52 547.6,-968.71"/>
<polygon fill="black" stroke="black" points="549.79,-971.46 556.18,-963.01 545.92,-965.63 549.79,-971.46"/>
</g>
<!-- Subtract11_0 -->
<g id="node12" class="node">
<title>Subtract11_0</title>
<ellipse fill="none" stroke="black" cx="198" cy="-940.86" rx="55.72" ry="26.74"/>
<text text-anchor="middle" x="198" y="-944.66" font-family="Times,serif" font-size="14.00">Subtract</text>
<text text-anchor="middle" x="198" y="-929.66" font-family="Times,serif" font-size="14.00">i64[5, 5]</text>
</g>
<!-- PRF8_0&#45;&gt;Subtract11_0 -->
<g id="edge9" class="edge">
<title>PRF8_0&#45;&gt;Subtract11_0</title>
<path fill="none" stroke="black" d="M410.53,-1015.42C362.6,-1000.4 290.32,-977.53 263,-967.73 258.52,-966.12 253.89,-964.4 249.26,-962.64"/>
<polygon fill="black" stroke="black" points="250.39,-959.32 239.8,-958.98 247.87,-965.85 250.39,-959.32"/>
</g>
<!-- PRF9_0&#45;&gt;Subtract11_0 -->
<g id="edge10" class="edge">
<title>PRF9_0&#45;&gt;Subtract11_0</title>
<path fill="none" stroke="black" d="M281.74,-1007.46C267.52,-996.32 250.11,-982.68 234.86,-970.73"/>
<polygon fill="black" stroke="black" points="236.67,-967.71 226.64,-964.3 232.36,-973.22 236.67,-967.71"/>
</g>
<!-- PRF9_0&#45;&gt;Subtract12_0 -->
<g id="edge11" class="edge">
<title>PRF9_0&#45;&gt;Subtract12_0</title>
<path fill="none" stroke="black" d="M315.3,-1003.75C316.97,-995.61 318.85,-986.47 320.63,-977.76"/>
<polygon fill="black" stroke="black" points="324.09,-978.33 322.67,-967.83 317.23,-976.92 324.09,-978.33"/>
</g>
<!-- Subtract10_0&#45;&gt;Add13_0 -->
<g id="edge13" class="edge">
<title>Subtract10_0&#45;&gt;Add13_0</title>
<path fill="none" stroke="black" d="M628.2,-922.05C665.57,-905.5 721.3,-880.81 761.2,-863.13"/>
<polygon fill="black" stroke="black" points="762.74,-866.27 770.47,-859.02 759.91,-859.87 762.74,-866.27"/>
</g>
<!-- NOP15_0 -->
<g id="node16" class="node">
<title>NOP15_0</title>
<ellipse fill="none" stroke="black" cx="85" cy="-840.51" rx="69.09" ry="37.45"/>
<text text-anchor="middle" x="85" y="-851.81" font-family="Times,serif" font-size="14.00">NOP</text>
<text text-anchor="middle" x="85" y="-836.81" font-family="Times,serif" font-size="14.00">Send[1&#45;&gt;0]</text>
<text text-anchor="middle" x="85" y="-821.81" font-family="Times,serif" font-size="14.00">i64[5, 5]</text>
</g>
<!-- Subtract11_0&#45;&gt;NOP15_0 -->
<g id="edge16" class="edge">
<title>Subtract11_0&#45;&gt;NOP15_0</title>
<path fill="none" stroke="black" d="M171.79,-917.05C159.03,-905.94 143.34,-892.28 128.83,-879.65"/>
<polygon fill="black" stroke="black" points="130.75,-876.69 120.91,-872.76 126.15,-881.97 130.75,-876.69"/>
</g>
<!-- NOP16_0 -->
<g id="node17" class="node">
<title>NOP16_0</title>
<ellipse fill="none" stroke="black" cx="399" cy="-840.51" rx="69.09" ry="37.45"/>
<text text-anchor="middle" x="399" y="-851.81" font-family="Times,serif" font-size="14.00">NOP</text>
<text text-anchor="middle" x="399" y="-836.81" font-family="Times,serif" font-size="14.00">Send[2&#45;&gt;1]</text>
<text text-anchor="middle" x="399" y="-821.81" font-family="Times,serif" font-size="14.00">i64[5, 5]</text>
</g>
<!-- Subtract12_0&#45;&gt;NOP16_0 -->
<g id="edge17" class="edge">
<title>Subtract12_0&#45;&gt;NOP16_0</title>
<path fill="none" stroke="black" d="M345.73,-915.29C352.54,-905.87 360.52,-894.81 368.2,-884.17"/>
<polygon fill="black" stroke="black" points="371.25,-885.92 374.27,-875.77 365.58,-881.83 371.25,-885.92"/>
</g>
<!-- NOP14_0 -->
<g id="node15" class="node">
<title>NOP14_0</title>
<ellipse fill="none" stroke="black" cx="835" cy="-729.56" rx="69.09" ry="37.45"/>
<text text-anchor="middle" x="835" y="-740.86" font-family="Times,serif" font-size="14.00">NOP</text>
<text text-anchor="middle" x="835" y="-725.86" font-family="Times,serif" font-size="14.00">Send[0&#45;&gt;2]</text>
<text text-anchor="middle" x="835" y="-710.86" font-family="Times,serif" font-size="14.00">i64[5, 5]</text>
</g>
<!-- Add13_0&#45;&gt;NOP14_0 -->
<g id="edge15" class="edge">
<title>Add13_0&#45;&gt;NOP14_0</title>
<path fill="none" stroke="black" d="M815.92,-813.69C818.45,-802.67 821.49,-789.46 824.38,-776.84"/>
<polygon fill="black" stroke="black" points="827.83,-777.44 826.66,-766.91 821.01,-775.87 827.83,-777.44"/>
</g>
<!-- Matmul29_0 -->
<g id="node30" class="node">
<title>Matmul29_0</title>
<ellipse fill="none" stroke="black" cx="537" cy="-629.21" rx="54.39" ry="26.74"/>
<text text-anchor="middle" x="537" y="-633.01" font-family="Times,serif" font-size="14.00">Matmul</text>
<text text-anchor="middle" x="537" y="-618.01" font-family="Times,serif" font-size="14.00">i64[5, 5]</text>
</g>
<!-- NOP14_0&#45;&gt;Matmul29_0 -->
<g id="edge34" class="edge">
<title>NOP14_0&#45;&gt;Matmul29_0</title>
<path fill="none" stroke="black" d="M779.55,-707.06C765.73,-701.94 750.88,-696.64 737,-692.08 681.67,-673.91 666.51,-673.7 611,-656.08 604.13,-653.9 596.94,-651.52 589.85,-649.11"/>
<polygon fill="black" stroke="black" points="590.89,-645.76 580.29,-645.82 588.61,-652.38 590.89,-645.76"/>
</g>
<!-- Matmul38_0 -->
<g id="node39" class="node">
<title>Matmul38_0</title>
<ellipse fill="none" stroke="black" cx="886" cy="-629.21" rx="54.39" ry="26.74"/>
<text text-anchor="middle" x="886" y="-633.01" font-family="Times,serif" font-size="14.00">Matmul</text>
<text text-anchor="middle" x="886" y="-618.01" font-family="Times,serif" font-size="14.00">i64[5, 5]</text>
</g>
<!-- NOP14_0&#45;&gt;Matmul38_0 -->
<g id="edge52" class="edge">
<title>NOP14_0&#45;&gt;Matmul38_0</title>
<path fill="none" stroke="black" d="M853.27,-693.33C858.16,-683.9 863.43,-673.73 868.29,-664.37"/>
<polygon fill="black" stroke="black" points="871.48,-665.82 872.97,-655.33 865.26,-662.59 871.48,-665.82"/>
</g>
<!-- Matmul30_0 -->
<g id="node31" class="node">
<title>Matmul30_0</title>
<ellipse fill="none" stroke="black" cx="274" cy="-729.56" rx="54.39" ry="26.74"/>
<text text-anchor="middle" x="274" y="-733.36" font-family="Times,serif" font-size="14.00">Matmul</text>
<text text-anchor="middle" x="274" y="-718.36" font-family="Times,serif" font-size="14.00">i64[5, 5]</text>
</g>
<!-- NOP15_0&#45;&gt;Matmul30_0 -->
<g id="edge36" class="edge">
<title>NOP15_0&#45;&gt;Matmul30_0</title>
<path fill="none" stroke="black" d="M131.72,-812.58C161.93,-795.16 200.99,-772.64 230.54,-755.61"/>
<polygon fill="black" stroke="black" points="232.47,-758.54 239.38,-750.51 228.97,-752.47 232.47,-758.54"/>
</g>
<!-- Matmul33_0 -->
<g id="node34" class="node">
<title>Matmul33_0</title>
<ellipse fill="none" stroke="black" cx="331" cy="-629.21" rx="54.39" ry="26.74"/>
<text text-anchor="middle" x="331" y="-633.01" font-family="Times,serif" font-size="14.00">Matmul</text>
<text text-anchor="middle" x="331" y="-618.01" font-family="Times,serif" font-size="14.00">i64[5, 5]</text>
</g>
<!-- NOP15_0&#45;&gt;Matmul33_0 -->
<g id="edge42" class="edge">
<title>NOP15_0&#45;&gt;Matmul33_0</title>
<path fill="none" stroke="black" d="M73.26,-803.38C65.11,-770.81 59.59,-723.36 84,-692.08 106.43,-663.34 202.48,-645.95 267.98,-637.22"/>
<polygon fill="black" stroke="black" points="268.74,-640.65 278.21,-635.89 267.84,-633.71 268.74,-640.65"/>
</g>
<!-- Matmul34_0 -->
<g id="node35" class="node">
<title>Matmul34_0</title>
<ellipse fill="none" stroke="black" cx="147" cy="-729.56" rx="54.39" ry="26.74"/>
<text text-anchor="middle" x="147" y="-733.36" font-family="Times,serif" font-size="14.00">Matmul</text>
<text text-anchor="middle" x="147" y="-718.36" font-family="Times,serif" font-size="14.00">i64[5, 5]</text>
</g>
<!-- NOP16_0&#45;&gt;Matmul34_0 -->
<g id="edge44" class="edge">
<title>NOP16_0&#45;&gt;Matmul34_0</title>
<path fill="none" stroke="black" d="M347.95,-814.91C338.72,-810.76 329.13,-806.64 320,-803.03 272.54,-784.31 257.62,-787.77 211,-767.03 203.77,-763.82 196.3,-760.03 189.12,-756.12"/>
<polygon fill="black" stroke="black" points="190.66,-752.98 180.23,-751.16 187.25,-759.09 190.66,-752.98"/>
</g>
<!-- Matmul37_0 -->
<g id="node38" class="node">
<title>Matmul37_0</title>
<ellipse fill="none" stroke="black" cx="674" cy="-629.21" rx="54.39" ry="26.74"/>
<text text-anchor="middle" x="674" y="-633.01" font-family="Times,serif" font-size="14.00">Matmul</text>
<text text-anchor="middle" x="674" y="-618.01" font-family="Times,serif" font-size="14.00">i64[5, 5]</text>
</g>
<!-- NOP16_0&#45;&gt;Matmul37_0 -->
<g id="edge50" class="edge">
<title>NOP16_0&#45;&gt;Matmul37_0</title>
<path fill="none" stroke="black" d="M450.02,-814.83C459.25,-810.69 468.85,-806.59 478,-803.03 527.13,-783.95 554.63,-805.18 591,-767.03 614.79,-742.08 593.64,-721.87 611,-692.08 618.01,-680.05 627.98,-668.76 637.92,-659.21"/>
<polygon fill="black" stroke="black" points="640.49,-661.61 645.47,-652.26 635.75,-656.46 640.49,-661.61"/>
</g>
<!-- Input17_0 -->
<g id="node18" class="node">
<title>Input17_0</title>
<polygon fill="royalblue" stroke="royalblue" points="232.5,-1049.6 155.5,-1049.6 155.5,-1011.6 232.5,-1011.6 232.5,-1049.6"/>
<text text-anchor="middle" x="194" y="-1034.4" font-family="Times,serif" font-size="14.00">Input</text>
<text text-anchor="middle" x="194" y="-1019.4" font-family="Times,serif" font-size="14.00">i64[5, 5]</text>
</g>
<!-- Add24_0 -->
<g id="node25" class="node">
<title>Add24_0</title>
<ellipse fill="none" stroke="black" cx="70" cy="-940.86" rx="54.39" ry="26.74"/>
<text text-anchor="middle" x="70" y="-944.66" font-family="Times,serif" font-size="14.00">Add</text>
<text text-anchor="middle" x="70" y="-929.66" font-family="Times,serif" font-size="14.00">i64[5, 5]</text>
</g>
<!-- Input17_0&#45;&gt;Add24_0 -->
<g id="edge28" class="edge">
<title>Input17_0&#45;&gt;Add24_0</title>
<path fill="none" stroke="black" d="M168.31,-1011.42C151.13,-999.26 128.21,-983.04 108.82,-969.33"/>
<polygon fill="black" stroke="black" points="110.66,-966.34 100.48,-963.42 106.62,-972.05 110.66,-966.34"/>
</g>
<!-- Subtract21_0 -->
<g id="node22" class="node">
<title>Subtract21_0</title>
<ellipse fill="none" stroke="black" cx="458" cy="-940.86" rx="55.72" ry="26.74"/>
<text text-anchor="middle" x="458" y="-944.66" font-family="Times,serif" font-size="14.00">Subtract</text>
<text text-anchor="middle" x="458" y="-929.66" font-family="Times,serif" font-size="14.00">i64[5, 5]</text>
</g>
<!-- PRF18_0&#45;&gt;Subtract21_0 -->
<g id="edge21" class="edge">
<title>PRF18_0&#45;&gt;Subtract21_0</title>
<path fill="none" stroke="black" d="M669.6,-1012.56C661.82,-1009.48 653.7,-1006.4 646,-1003.73 592.2,-985.03 576.85,-986.28 523,-967.73 518.43,-966.15 513.71,-964.44 509,-962.68"/>
<polygon fill="black" stroke="black" points="509.98,-959.31 499.39,-959 507.48,-965.85 509.98,-959.31"/>
</g>
<!-- Subtract23_0 -->
<g id="node24" class="node">
<title>Subtract23_0</title>
<ellipse fill="none" stroke="black" cx="942" cy="-940.86" rx="55.72" ry="26.74"/>
<text text-anchor="middle" x="942" y="-944.66" font-family="Times,serif" font-size="14.00">Subtract</text>
<text text-anchor="middle" x="942" y="-929.66" font-family="Times,serif" font-size="14.00">i64[5, 5]</text>
</g>
<!-- PRF18_0&#45;&gt;Subtract23_0 -->
<g id="edge26" class="edge">
<title>PRF18_0&#45;&gt;Subtract23_0</title>
<path fill="none" stroke="black" d="M750.85,-1012.72C758.51,-1009.66 766.48,-1006.55 774,-1003.73 819.8,-986.56 832.2,-984.9 878,-967.73 882.22,-966.15 886.57,-964.47 890.94,-962.77"/>
<polygon fill="black" stroke="black" points="892.45,-965.93 900.46,-959 889.88,-959.42 892.45,-965.93"/>
</g>
<!-- PRF19_0&#45;&gt;Subtract21_0 -->
<g id="edge22" class="edge">
<title>PRF19_0&#45;&gt;Subtract21_0</title>
<path fill="none" stroke="black" d="M379.82,-1103.9C377.75,-1077.36 377.78,-1035.68 393,-1003.73 399.03,-991.06 408.86,-979.65 419.08,-970.18"/>
<polygon fill="black" stroke="black" points="421.68,-972.55 426.9,-963.33 417.07,-967.28 421.68,-972.55"/>
</g>
<!-- Subtract22_0 -->
<g id="node23" class="node">
<title>Subtract22_0</title>
<ellipse fill="none" stroke="black" cx="82" cy="-1030.6" rx="55.72" ry="26.74"/>
<text text-anchor="middle" x="82" y="-1034.4" font-family="Times,serif" font-size="14.00">Subtract</text>
<text text-anchor="middle" x="82" y="-1019.4" font-family="Times,serif" font-size="14.00">i64[5, 5]</text>
</g>
<!-- PRF19_0&#45;&gt;Subtract22_0 -->
<g id="edge23" class="edge">
<title>PRF19_0&#45;&gt;Subtract22_0</title>
<path fill="none" stroke="black" d="M336.29,-1116.97C288.2,-1103.3 211.3,-1080.6 146,-1057.47 141.57,-1055.9 137,-1054.2 132.43,-1052.46"/>
<polygon fill="black" stroke="black" points="133.7,-1049.2 123.11,-1048.83 131.16,-1055.72 133.7,-1049.2"/>
</g>
<!-- PRF20_0&#45;&gt;Subtract22_0 -->
<g id="edge24" class="edge">
<title>PRF20_0&#45;&gt;Subtract22_0</title>
<path fill="none" stroke="black" d="M508.03,-1113.09C489.39,-1106.03 466.87,-1098.35 446,-1093.47 315.24,-1062.87 276.06,-1090.92 146,-1057.47 141.12,-1056.21 136.12,-1054.67 131.16,-1052.97"/>
<polygon fill="black" stroke="black" points="132.33,-1049.67 121.74,-1049.54 129.94,-1056.25 132.33,-1049.67"/>
</g>
<!-- PRF20_0&#45;&gt;Subtract23_0 -->
<g id="edge25" class="edge">
<title>PRF20_0&#45;&gt;Subtract23_0</title>
<path fill="none" stroke="black" d="M583.91,-1110.07C596.23,-1103.84 610.41,-1097.54 624,-1093.47 683.25,-1075.71 851.75,-1096.17 900,-1057.47 900.84,-1056.79 917.35,-1010.93 929.41,-977.18"/>
<polygon fill="black" stroke="black" points="932.77,-978.19 932.84,-967.59 926.18,-975.83 932.77,-978.19"/>
</g>
<!-- NOP25_0 -->
<g id="node26" class="node">
<title>NOP25_0</title>
<ellipse fill="none" stroke="black" cx="556" cy="-840.51" rx="69.09" ry="37.45"/>
<text text-anchor="middle" x="556" y="-851.81" font-family="Times,serif" font-size="14.00">NOP</text>
<text text-anchor="middle" x="556" y="-836.81" font-family="Times,serif" font-size="14.00">Send[0&#45;&gt;2]</text>
<text text-anchor="middle" x="556" y="-821.81" font-family="Times,serif" font-size="14.00">i64[5, 5]</text>
</g>
<!-- Subtract21_0&#45;&gt;NOP25_0 -->
<g id="edge29" class="edge">
<title>Subtract21_0&#45;&gt;NOP25_0</title>
<path fill="none" stroke="black" d="M481.47,-916.3C491.98,-905.76 504.65,-893.04 516.55,-881.1"/>
<polygon fill="black" stroke="black" points="519.25,-883.35 523.83,-873.8 514.29,-878.41 519.25,-883.35"/>
</g>
<!-- Subtract22_0&#45;&gt;Add24_0 -->
<g id="edge27" class="edge">
<title>Subtract22_0&#45;&gt;Add24_0</title>
<path fill="none" stroke="black" d="M78.46,-1003.75C77.35,-995.61 76.1,-986.47 74.91,-977.76"/>
<polygon fill="black" stroke="black" points="78.37,-977.26 73.55,-967.83 71.44,-978.21 78.37,-977.26"/>
</g>
<!-- NOP27_0 -->
<g id="node28" class="node">
<title>NOP27_0</title>
<ellipse fill="none" stroke="black" cx="952" cy="-840.51" rx="69.09" ry="37.45"/>
<text text-anchor="middle" x="952" y="-851.81" font-family="Times,serif" font-size="14.00">NOP</text>
<text text-anchor="middle" x="952" y="-836.81" font-family="Times,serif" font-size="14.00">Send[2&#45;&gt;1]</text>
<text text-anchor="middle" x="952" y="-821.81" font-family="Times,serif" font-size="14.00">i64[5, 5]</text>
</g>
<!-- Subtract23_0&#45;&gt;NOP27_0 -->
<g id="edge31" class="edge">
<title>Subtract23_0&#45;&gt;NOP27_0</title>
<path fill="none" stroke="black" d="M944.65,-913.76C945.45,-905.91 946.35,-897.04 947.25,-888.27"/>
<polygon fill="black" stroke="black" points="950.75,-888.4 948.28,-878.1 943.79,-887.69 950.75,-888.4"/>
</g>
<!-- NOP26_0 -->
<g id="node27" class="node">
<title>NOP26_0</title>
<ellipse fill="none" stroke="black" cx="242" cy="-840.51" rx="69.09" ry="37.45"/>
<text text-anchor="middle" x="242" y="-851.81" font-family="Times,serif" font-size="14.00">NOP</text>
<text text-anchor="middle" x="242" y="-836.81" font-family="Times,serif" font-size="14.00">Send[1&#45;&gt;0]</text>
<text text-anchor="middle" x="242" y="-821.81" font-family="Times,serif" font-size="14.00">i64[5, 5]</text>
</g>
<!-- Add24_0&#45;&gt;NOP26_0 -->
<g id="edge30" class="edge">
<title>Add24_0&#45;&gt;NOP26_0</title>
<path fill="none" stroke="black" d="M104.81,-919.96C128.18,-906.59 159.48,-888.69 186.28,-873.37"/>
<polygon fill="black" stroke="black" points="188.24,-876.28 195.18,-868.28 184.76,-870.21 188.24,-876.28"/>
</g>
<!-- Add28_0 -->
<g id="node29" class="node">
<title>Add28_0</title>
<ellipse fill="none" stroke="black" cx="528" cy="-729.56" rx="54.39" ry="26.74"/>
<text text-anchor="middle" x="528" y="-733.36" font-family="Times,serif" font-size="14.00">Add</text>
<text text-anchor="middle" x="528" y="-718.36" font-family="Times,serif" font-size="14.00">i64[5, 5]</text>
</g>
<!-- NOP25_0&#45;&gt;Add28_0 -->
<g id="edge32" class="edge">
<title>NOP25_0&#45;&gt;Add28_0</title>
<path fill="none" stroke="black" d="M546.68,-803.23C543.62,-791.36 540.24,-778.18 537.2,-766.34"/>
<polygon fill="black" stroke="black" points="540.51,-765.17 534.63,-756.35 533.73,-766.91 540.51,-765.17"/>
</g>
<!-- NOP25_0&#45;&gt;Matmul30_0 -->
<g id="edge37" class="edge">
<title>NOP25_0&#45;&gt;Matmul30_0</title>
<path fill="none" stroke="black" d="M505.56,-814.6C496.19,-810.44 486.39,-806.39 477,-803.03 416.9,-781.57 397.13,-791.04 338,-767.03 330.5,-763.99 322.8,-760.22 315.45,-756.27"/>
<polygon fill="black" stroke="black" points="316.82,-753.03 306.38,-751.22 313.41,-759.14 316.82,-753.03"/>
</g>
<!-- Add36_0 -->
<g id="node37" class="node">
<title>Add36_0</title>
<ellipse fill="none" stroke="black" cx="674" cy="-729.56" rx="54.39" ry="26.74"/>
<text text-anchor="middle" x="674" y="-733.36" font-family="Times,serif" font-size="14.00">Add</text>
<text text-anchor="middle" x="674" y="-718.36" font-family="Times,serif" font-size="14.00">i64[5, 5]</text>
</g>
<!-- NOP25_0&#45;&gt;Add36_0 -->
<g id="edge49" class="edge">
<title>NOP25_0&#45;&gt;Add36_0</title>
<path fill="none" stroke="black" d="M590.45,-807.7C606.58,-792.81 625.7,-775.15 641.57,-760.5"/>
<polygon fill="black" stroke="black" points="644.1,-762.92 649.08,-753.57 639.36,-757.78 644.1,-762.92"/>
</g>
<!-- NOP26_0&#45;&gt;Add28_0 -->
<g id="edge33" class="edge">
<title>NOP26_0&#45;&gt;Add28_0</title>
<path fill="none" stroke="black" d="M292.42,-814.55C301.79,-810.39 311.6,-806.35 321,-803.03 382.8,-781.2 403.19,-791.48 464,-767.03 471.51,-764.01 479.22,-760.26 486.56,-756.32"/>
<polygon fill="black" stroke="black" points="488.61,-759.19 495.64,-751.26 485.2,-753.07 488.61,-759.19"/>
</g>
<!-- Add32_0 -->
<g id="node33" class="node">
<title>Add32_0</title>
<ellipse fill="none" stroke="black" cx="401" cy="-729.56" rx="54.39" ry="26.74"/>
<text text-anchor="middle" x="401" y="-733.36" font-family="Times,serif" font-size="14.00">Add</text>
<text text-anchor="middle" x="401" y="-718.36" font-family="Times,serif" font-size="14.00">i64[5, 5]</text>
</g>
<!-- NOP26_0&#45;&gt;Add32_0 -->
<g id="edge40" class="edge">
<title>NOP26_0&#45;&gt;Add32_0</title>
<path fill="none" stroke="black" d="M284.19,-810.6C308.2,-794.15 338.08,-773.67 361.61,-757.55"/>
<polygon fill="black" stroke="black" points="363.69,-760.36 369.97,-751.82 359.74,-754.59 363.69,-760.36"/>
</g>
<!-- NOP26_0&#45;&gt;Matmul34_0 -->
<g id="edge45" class="edge">
<title>NOP26_0&#45;&gt;Matmul34_0</title>
<path fill="none" stroke="black" d="M212.98,-806.23C200.85,-792.31 186.81,-776.21 174.81,-762.45"/>
<polygon fill="black" stroke="black" points="177.22,-759.89 168.01,-754.65 171.94,-764.49 177.22,-759.89"/>
</g>
<!-- NOP27_0&#45;&gt;Add32_0 -->
<g id="edge41" class="edge">
<title>NOP27_0&#45;&gt;Add32_0</title>
<path fill="none" stroke="black" d="M903.25,-813.85C893.45,-809.6 883.07,-805.72 873,-803.03 697.09,-756.18 638.74,-821.35 465,-767.03 456.84,-764.48 448.58,-760.78 440.82,-756.69"/>
<polygon fill="black" stroke="black" points="442.43,-753.58 431.99,-751.77 439.02,-759.7 442.43,-753.58"/>
</g>
<!-- NOP27_0&#45;&gt;Add36_0 -->
<g id="edge48" class="edge">
<title>NOP27_0&#45;&gt;Add36_0</title>
<path fill="none" stroke="black" d="M901,-814.77C891.77,-810.64 882.17,-806.55 873,-803.03 822.61,-783.68 807.57,-785.92 757,-767.03 745.6,-762.77 733.51,-757.76 722.19,-752.83"/>
<polygon fill="black" stroke="black" points="723.45,-749.57 712.89,-748.73 720.63,-755.97 723.45,-749.57"/>
</g>
<!-- NOP27_0&#45;&gt;Matmul38_0 -->
<g id="edge53" class="edge">
<title>NOP27_0&#45;&gt;Matmul38_0</title>
<path fill="none" stroke="black" d="M943.98,-802.99C936.98,-772.87 925.93,-729.21 913,-692.08 909.86,-683.06 905.98,-673.51 902.15,-664.68"/>
<polygon fill="black" stroke="black" points="905.31,-663.17 898.06,-655.45 898.91,-666.01 905.31,-663.17"/>
</g>
<!-- Add28_0&#45;&gt;Matmul29_0 -->
<g id="edge35" class="edge">
<title>Add28_0&#45;&gt;Matmul29_0</title>
<path fill="none" stroke="black" d="M530.39,-702.46C531.4,-691.37 532.6,-678.25 533.7,-666.26"/>
<polygon fill="black" stroke="black" points="537.21,-666.37 534.63,-656.09 530.24,-665.73 537.21,-666.37"/>
</g>
<!-- Add31_0 -->
<g id="node32" class="node">
<title>Add31_0</title>
<ellipse fill="none" stroke="black" cx="537" cy="-539.47" rx="54.39" ry="26.74"/>
<text text-anchor="middle" x="537" y="-543.27" font-family="Times,serif" font-size="14.00">Add</text>
<text text-anchor="middle" x="537" y="-528.27" font-family="Times,serif" font-size="14.00">i64[5, 5]</text>
</g>
<!-- Matmul29_0&#45;&gt;Add31_0 -->
<g id="edge38" class="edge">
<title>Matmul29_0&#45;&gt;Add31_0</title>
<path fill="none" stroke="black" d="M537,-601.89C537,-593.92 537,-585.03 537,-576.54"/>
<polygon fill="black" stroke="black" points="540.5,-576.47 537,-566.47 533.5,-576.47 540.5,-576.47"/>
</g>
<!-- Matmul30_0&#45;&gt;Add31_0 -->
<g id="edge39" class="edge">
<title>Matmul30_0&#45;&gt;Add31_0</title>
<path fill="none" stroke="black" d="M308.37,-708.5C338.09,-691.04 378.61,-666.88 394,-656.08 432.94,-628.77 474.99,-594.09 503.34,-569.87"/>
<polygon fill="black" stroke="black" points="505.65,-572.5 510.96,-563.33 501.1,-567.18 505.65,-572.5"/>
</g>
<!-- Add46_0 -->
<g id="node47" class="node">
<title>Add46_0</title>
<ellipse fill="none" stroke="black" cx="853" cy="-449.73" rx="54.39" ry="26.74"/>
<text text-anchor="middle" x="853" y="-453.53" font-family="Times,serif" font-size="14.00">Add</text>
<text text-anchor="middle" x="853" y="-438.53" font-family="Times,serif" font-size="14.00">i64[5, 5]</text>
</g>
<!-- Add31_0&#45;&gt;Add46_0 -->
<g id="edge65" class="edge">
<title>Add31_0&#45;&gt;Add46_0</title>
<path fill="none" stroke="black" d="M583.63,-525.52C640.22,-509.81 735.6,-483.33 796.37,-466.45"/>
<polygon fill="black" stroke="black" points="797.48,-469.78 806.18,-463.73 795.61,-463.03 797.48,-469.78"/>
</g>
<!-- Add32_0&#45;&gt;Matmul33_0 -->
<g id="edge43" class="edge">
<title>Add32_0&#45;&gt;Matmul33_0</title>
<path fill="none" stroke="black" d="M383.52,-703.99C374.75,-691.67 364,-676.57 354.52,-663.25"/>
<polygon fill="black" stroke="black" points="357.15,-660.92 348.5,-654.8 351.45,-664.98 357.15,-660.92"/>
</g>
<!-- Add35_0 -->
<g id="node36" class="node">
<title>Add35_0</title>
<ellipse fill="none" stroke="black" cx="331" cy="-539.47" rx="54.39" ry="26.74"/>
<text text-anchor="middle" x="331" y="-543.27" font-family="Times,serif" font-size="14.00">Add</text>
<text text-anchor="middle" x="331" y="-528.27" font-family="Times,serif" font-size="14.00">i64[5, 5]</text>
</g>
<!-- Matmul33_0&#45;&gt;Add35_0 -->
<g id="edge46" class="edge">
<title>Matmul33_0&#45;&gt;Add35_0</title>
<path fill="none" stroke="black" d="M331,-601.89C331,-593.92 331,-585.03 331,-576.54"/>
<polygon fill="black" stroke="black" points="334.5,-576.47 331,-566.47 327.5,-576.47 334.5,-576.47"/>
</g>
<!-- Matmul34_0&#45;&gt;Add35_0 -->
<g id="edge47" class="edge">
<title>Matmul34_0&#45;&gt;Add35_0</title>
<path fill="none" stroke="black" d="M169.54,-704.62C193.68,-679.08 233.22,-637.54 268,-602.34 278.23,-591.99 289.54,-580.8 299.72,-570.83"/>
<polygon fill="black" stroke="black" points="302.2,-573.3 306.9,-563.81 297.3,-568.29 302.2,-573.3"/>
</g>
<!-- Add48_0 -->
<g id="node49" class="node">
<title>Add48_0</title>
<ellipse fill="none" stroke="black" cx="696" cy="-449.73" rx="54.39" ry="26.74"/>
<text text-anchor="middle" x="696" y="-453.53" font-family="Times,serif" font-size="14.00">Add</text>
<text text-anchor="middle" x="696" y="-438.53" font-family="Times,serif" font-size="14.00">i64[5, 5]</text>
</g>
<!-- Add35_0&#45;&gt;Add48_0 -->
<g id="edge68" class="edge">
<title>Add35_0&#45;&gt;Add48_0</title>
<path fill="none" stroke="black" d="M379.47,-526.82C446.24,-510.77 566.35,-481.9 637.86,-464.71"/>
<polygon fill="black" stroke="black" points="638.72,-468.1 647.62,-462.36 637.08,-461.29 638.72,-468.1"/>
</g>
<!-- Add36_0&#45;&gt;Matmul37_0 -->
<g id="edge51" class="edge">
<title>Add36_0&#45;&gt;Matmul37_0</title>
<path fill="none" stroke="black" d="M674,-702.46C674,-691.37 674,-678.25 674,-666.26"/>
<polygon fill="black" stroke="black" points="677.5,-666.09 674,-656.09 670.5,-666.09 677.5,-666.09"/>
</g>
<!-- Add39_0 -->
<g id="node40" class="node">
<title>Add39_0</title>
<ellipse fill="none" stroke="black" cx="886" cy="-539.47" rx="54.39" ry="26.74"/>
<text text-anchor="middle" x="886" y="-543.27" font-family="Times,serif" font-size="14.00">Add</text>
<text text-anchor="middle" x="886" y="-528.27" font-family="Times,serif" font-size="14.00">i64[5, 5]</text>
</g>
<!-- Matmul37_0&#45;&gt;Add39_0 -->
<g id="edge54" class="edge">
<title>Matmul37_0&#45;&gt;Add39_0</title>
<path fill="none" stroke="black" d="M714.88,-611.29C749.34,-597.03 798.79,-576.56 835.68,-561.3"/>
<polygon fill="black" stroke="black" points="837.35,-564.39 845.25,-557.34 834.67,-557.93 837.35,-564.39"/>
</g>
<!-- Matmul38_0&#45;&gt;Add39_0 -->
<g id="edge55" class="edge">
<title>Matmul38_0&#45;&gt;Add39_0</title>
<path fill="none" stroke="black" d="M886,-601.89C886,-593.92 886,-585.03 886,-576.54"/>
<polygon fill="black" stroke="black" points="889.5,-576.47 886,-566.47 882.5,-576.47 889.5,-576.47"/>
</g>
<!-- Add50_0 -->
<g id="node51" class="node">
<title>Add50_0</title>
<ellipse fill="none" stroke="black" cx="987" cy="-449.73" rx="54.39" ry="26.74"/>
<text text-anchor="middle" x="987" y="-453.53" font-family="Times,serif" font-size="14.00">Add</text>
<text text-anchor="middle" x="987" y="-438.53" font-family="Times,serif" font-size="14.00">i64[5, 5]</text>
</g>
<!-- Add39_0&#45;&gt;Add50_0 -->
<g id="edge71" class="edge">
<title>Add39_0&#45;&gt;Add50_0</title>
<path fill="none" stroke="black" d="M912.27,-515.65C924.78,-504.78 939.89,-491.66 953.24,-480.06"/>
<polygon fill="black" stroke="black" points="955.6,-482.64 960.86,-473.44 951.01,-477.36 955.6,-482.64"/>
</g>
<!-- Subtract43_0 -->
<g id="node44" class="node">
<title>Subtract43_0</title>
<ellipse fill="none" stroke="black" cx="1072" cy="-940.86" rx="55.72" ry="26.74"/>
<text text-anchor="middle" x="1072" y="-944.66" font-family="Times,serif" font-size="14.00">Subtract</text>
<text text-anchor="middle" x="1072" y="-929.66" font-family="Times,serif" font-size="14.00">i64[5, 5]</text>
</g>
<!-- PRF40_0&#45;&gt;Subtract43_0 -->
<g id="edge59" class="edge">
<title>PRF40_0&#45;&gt;Subtract43_0</title>
<path fill="none" stroke="black" d="M1099.01,-1004.22C1095.3,-995.65 1091.09,-985.94 1087.12,-976.77"/>
<polygon fill="black" stroke="black" points="1090.28,-975.27 1083.1,-967.48 1083.86,-978.05 1090.28,-975.27"/>
</g>
<!-- Subtract45_0 -->
<g id="node46" class="node">
<title>Subtract45_0</title>
<ellipse fill="none" stroke="black" cx="1202" cy="-940.86" rx="55.72" ry="26.74"/>
<text text-anchor="middle" x="1202" y="-944.66" font-family="Times,serif" font-size="14.00">Subtract</text>
<text text-anchor="middle" x="1202" y="-929.66" font-family="Times,serif" font-size="14.00">i64[5, 5]</text>
</g>
<!-- PRF40_0&#45;&gt;Subtract45_0 -->
<g id="edge64" class="edge">
<title>PRF40_0&#45;&gt;Subtract45_0</title>
<path fill="none" stroke="black" d="M1134.65,-1006.08C1145.57,-995.67 1158.55,-983.3 1170.18,-972.2"/>
<polygon fill="black" stroke="black" points="1172.78,-974.56 1177.6,-965.13 1167.94,-969.5 1172.78,-974.56"/>
</g>
<!-- PRF41_0&#45;&gt;Subtract43_0 -->
<g id="edge60" class="edge">
<title>PRF41_0&#45;&gt;Subtract43_0</title>
<path fill="none" stroke="black" d="M880.45,-1014.18C914.88,-1001.88 964.15,-984.05 1007,-967.73 1011.45,-966.03 1016.06,-964.25 1020.67,-962.45"/>
<polygon fill="black" stroke="black" points="1022.09,-965.65 1030.11,-958.74 1019.53,-959.14 1022.09,-965.65"/>
</g>
<!-- Subtract44_0 -->
<g id="node45" class="node">
<title>Subtract44_0</title>
<ellipse fill="none" stroke="black" cx="718" cy="-940.86" rx="55.72" ry="26.74"/>
<text text-anchor="middle" x="718" y="-944.66" font-family="Times,serif" font-size="14.00">Subtract</text>
<text text-anchor="middle" x="718" y="-929.66" font-family="Times,serif" font-size="14.00">i64[5, 5]</text>
</g>
<!-- PRF41_0&#45;&gt;Subtract44_0 -->
<g id="edge61" class="edge">
<title>PRF41_0&#45;&gt;Subtract44_0</title>
<path fill="none" stroke="black" d="M807.58,-1007.91C792.11,-996.5 772.95,-982.38 756.33,-970.12"/>
<polygon fill="black" stroke="black" points="758.03,-967.02 747.9,-963.91 753.88,-972.66 758.03,-967.02"/>
</g>
<!-- PRF42_0&#45;&gt;Subtract44_0 -->
<g id="edge62" class="edge">
<title>PRF42_0&#45;&gt;Subtract44_0</title>
<path fill="none" stroke="black" d="M937.78,-1015.47C925.52,-1011.65 912.26,-1007.52 900,-1003.73 848.03,-987.63 834.32,-985.8 783,-967.73 778.44,-966.12 773.73,-964.39 769.03,-962.61"/>
<polygon fill="black" stroke="black" points="770.01,-959.24 759.42,-958.92 767.5,-965.77 770.01,-959.24"/>
</g>
<!-- PRF42_0&#45;&gt;Subtract45_0 -->
<g id="edge63" class="edge">
<title>PRF42_0&#45;&gt;Subtract45_0</title>
<path fill="none" stroke="black" d="M1024.3,-1012.87C1031.85,-1009.82 1039.66,-1006.68 1047,-1003.73 1081.45,-989.89 1120.24,-974.4 1150.4,-962.39"/>
<polygon fill="black" stroke="black" points="1151.88,-965.57 1159.88,-958.61 1149.29,-959.06 1151.88,-965.57"/>
</g>
<!-- Subtract43_0&#45;&gt;Add46_0 -->
<g id="edge66" class="edge">
<title>Subtract43_0&#45;&gt;Add46_0</title>
<path fill="none" stroke="black" d="M1069.75,-913.78C1066.53,-874.2 1061,-796.6 1061,-730.56 1061,-730.56 1061,-730.56 1061,-628.21 1061,-546.99 968.09,-495.06 906.46,-469.55"/>
<polygon fill="black" stroke="black" points="907.44,-466.17 896.86,-465.68 904.83,-472.66 907.44,-466.17"/>
</g>
<!-- Subtract44_0&#45;&gt;Add48_0 -->
<g id="edge69" class="edge">
<title>Subtract44_0&#45;&gt;Add48_0</title>
<path fill="none" stroke="black" d="M722.77,-913.9C732.47,-857.14 752.34,-717.82 737,-602.34 731.6,-561.66 718.38,-516.42 708.4,-486.03"/>
<polygon fill="black" stroke="black" points="711.64,-484.7 705.16,-476.33 705.01,-486.92 711.64,-484.7"/>
</g>
<!-- Subtract45_0&#45;&gt;Add50_0 -->
<g id="edge72" class="edge">
<title>Subtract45_0&#45;&gt;Add50_0</title>
<path fill="none" stroke="black" d="M1190.53,-914.34C1174.15,-875.5 1146,-798.83 1146,-730.56 1146,-730.56 1146,-730.56 1146,-628.21 1146,-559.28 1078.64,-504.89 1031.6,-475.32"/>
<polygon fill="black" stroke="black" points="1033.43,-472.33 1023.08,-470.08 1029.77,-478.3 1033.43,-472.33"/>
</g>
<!-- NOP47_0 -->
<g id="node48" class="node">
<title>NOP47_0</title>
<ellipse fill="none" stroke="black" cx="853" cy="-238.43" rx="69.09" ry="37.45"/>
<text text-anchor="middle" x="853" y="-249.73" font-family="Times,serif" font-size="14.00">NOP</text>
<text text-anchor="middle" x="853" y="-234.73" font-family="Times,serif" font-size="14.00">Send[0&#45;&gt;2]</text>
<text text-anchor="middle" x="853" y="-219.73" font-family="Times,serif" font-size="14.00">i64[5, 5]</text>
</g>
<!-- Add46_0&#45;&gt;NOP47_0 -->
<g id="edge67" class="edge">
<title>Add46_0&#45;&gt;NOP47_0</title>
<path fill="none" stroke="black" d="M853,-422.65C853,-388.53 853,-328.16 853,-286.08"/>
<polygon fill="black" stroke="black" points="856.5,-286.07 853,-276.07 849.5,-286.07 856.5,-286.07"/>
</g>
<!-- Add53_0 -->
<g id="node54" class="node">
<title>Add53_0</title>
<ellipse fill="none" stroke="black" cx="845" cy="-127.48" rx="54.39" ry="26.74"/>
<text text-anchor="middle" x="845" y="-131.28" font-family="Times,serif" font-size="14.00">Add</text>
<text text-anchor="middle" x="845" y="-116.28" font-family="Times,serif" font-size="14.00">i64[5, 5]</text>
</g>
<!-- NOP47_0&#45;&gt;Add53_0 -->
<g id="edge75" class="edge">
<title>NOP47_0&#45;&gt;Add53_0</title>
<path fill="none" stroke="black" d="M850.31,-200.85C849.46,-189.2 848.51,-176.33 847.66,-164.71"/>
<polygon fill="black" stroke="black" points="851.13,-164.18 846.91,-154.47 844.15,-164.7 851.13,-164.18"/>
</g>
<!-- NOP49_0 -->
<g id="node50" class="node">
<title>NOP49_0</title>
<ellipse fill="none" stroke="black" cx="696" cy="-349.38" rx="69.09" ry="37.45"/>
<text text-anchor="middle" x="696" y="-360.68" font-family="Times,serif" font-size="14.00">NOP</text>
<text text-anchor="middle" x="696" y="-345.68" font-family="Times,serif" font-size="14.00">Send[1&#45;&gt;0]</text>
<text text-anchor="middle" x="696" y="-330.68" font-family="Times,serif" font-size="14.00">i64[5, 5]</text>
</g>
<!-- Add48_0&#45;&gt;NOP49_0 -->
<g id="edge70" class="edge">
<title>Add48_0&#45;&gt;NOP49_0</title>
<path fill="none" stroke="black" d="M696,-422.63C696,-414.78 696,-405.91 696,-397.15"/>
<polygon fill="black" stroke="black" points="699.5,-396.97 696,-386.97 692.5,-396.97 699.5,-396.97"/>
</g>
<!-- NOP52_0 -->
<g id="node53" class="node">
<title>NOP52_0</title>
<ellipse fill="none" stroke="black" cx="696" cy="-238.43" rx="69.09" ry="37.45"/>
<text text-anchor="middle" x="696" y="-249.73" font-family="Times,serif" font-size="14.00">NOP</text>
<text text-anchor="middle" x="696" y="-234.73" font-family="Times,serif" font-size="14.00">Send[1&#45;&gt;2]</text>
<text text-anchor="middle" x="696" y="-219.73" font-family="Times,serif" font-size="14.00">i64[5, 5]</text>
</g>
<!-- NOP49_0&#45;&gt;NOP52_0 -->
<g id="edge74" class="edge">
<title>NOP49_0&#45;&gt;NOP52_0</title>
<path fill="none" stroke="black" d="M696,-311.8C696,-303.63 696,-294.85 696,-286.32"/>
<polygon fill="black" stroke="black" points="699.5,-286.1 696,-276.1 692.5,-286.1 699.5,-286.1"/>
</g>
<!-- NOP51_0 -->
<g id="node52" class="node">
<title>NOP51_0</title>
<ellipse fill="none" stroke="black" cx="987" cy="-127.48" rx="69.09" ry="37.45"/>
<text text-anchor="middle" x="987" y="-138.78" font-family="Times,serif" font-size="14.00">NOP</text>
<text text-anchor="middle" x="987" y="-123.78" font-family="Times,serif" font-size="14.00">Send[2&#45;&gt;1]</text>
<text text-anchor="middle" x="987" y="-108.78" font-family="Times,serif" font-size="14.00">i64[5, 5]</text>
</g>
<!-- Add50_0&#45;&gt;NOP51_0 -->
<g id="edge73" class="edge">
<title>Add50_0&#45;&gt;NOP51_0</title>
<path fill="none" stroke="black" d="M987,-422.79C987,-368.76 987,-243.48 987,-175.09"/>
<polygon fill="black" stroke="black" points="990.5,-175.02 987,-165.02 983.5,-175.02 990.5,-175.02"/>
</g>
<!-- Add54_0 -->
<g id="node55" class="node">
<title>Add54_0</title>
<polygon fill="crimson" stroke="crimson" points="954.5,-54 877.5,-54 877.5,-16 954.5,-16 954.5,-54"/>
<text text-anchor="middle" x="916" y="-38.8" font-family="Times,serif" font-size="14.00">Add</text>
<text text-anchor="middle" x="916" y="-23.8" font-family="Times,serif" font-size="14.00">i64[5, 5]</text>
</g>
<!-- NOP51_0&#45;&gt;Add54_0 -->
<g id="edge78" class="edge">
<title>NOP51_0&#45;&gt;Add54_0</title>
<path fill="none" stroke="black" d="M960.56,-92.79C952.63,-82.68 944.06,-71.76 936.57,-62.21"/>
<polygon fill="black" stroke="black" points="939.24,-59.94 930.31,-54.23 933.73,-64.26 939.24,-59.94"/>
</g>
<!-- NOP52_0&#45;&gt;Add53_0 -->
<g id="edge76" class="edge">
<title>NOP52_0&#45;&gt;Add53_0</title>
<path fill="none" stroke="black" d="M736.32,-207.95C758.23,-191.92 785.18,-172.22 806.76,-156.44"/>
<polygon fill="black" stroke="black" points="809.04,-159.11 815.05,-150.38 804.91,-153.45 809.04,-159.11"/>
</g>
<!-- Add53_0&#45;&gt;Add54_0 -->
<g id="edge77" class="edge">
<title>Add53_0&#45;&gt;Add54_0</title>
<path fill="none" stroke="black" d="M864.03,-102.23C873.73,-89.86 885.55,-74.81 895.46,-62.18"/>
<polygon fill="black" stroke="black" points="898.23,-64.31 901.65,-54.28 892.73,-59.99 898.23,-64.31"/>
</g>
</g>
</svg>
